<svg width="1911" height="1062" viewBox="0 0 1911 1062" fill="none" xmlns="http://www.w3.org/2000/svg">
<path d="M92.81 525.21C131.05 578.97 124.04 652.07 117.48 718.08C110.81 785.13 109.61 861.5 157.02 909.38C200.41 953.21 270.5 957.04 330.84 944.3C391.19 931.56 448.58 905.27 509.88 898.51C612.97 887.12 712.74 931.64 812.92 958.48C913.1 985.32 1033.68 989.51 1106.17 915.34C1131.4 889.53 1148.01 856.67 1169.93 828C1191.84 799.32 1222.31 773.45 1258.36 771.74C1321.74 768.72 1361.48 835.62 1406.13 880.69C1484.93 960.23 1617.37 980.05 1715.99 927.06C1814.62 874.07 1871.2 752.7 1848.37 643.09C1838.7 596.67 1816.38 551.62 1808.25 505.73C1770.01 451.97 1777.02 378.87 1783.58 312.86C1790.25 245.81 1791.45 169.44 1744.04 121.56C1700.65 77.73 1630.56 73.9 1570.22 86.64C1509.87 99.38 1452.48 125.67 1391.18 132.43C1288.09 143.82 1188.32 99.3 1088.14 72.46C987.96 45.62 867.38 41.43 794.89 115.6C769.66 141.41 753.05 174.27 731.13 202.94C709.22 231.62 678.75 257.49 642.7 259.2C579.32 262.22 539.58 195.32 494.93 150.25C416.13 70.71 283.69 50.89 185.07 103.88C86.44 156.87 29.86 278.24 52.69 387.85C62.36 434.27 84.68 479.32 92.81 525.21Z" fill="white"/>
</svg>
