<svg id="圖層_1" data-name="圖層 1" xmlns="http://www.w3.org/2000/svg" viewBox="0 0 3934.55 3967.21"><defs><style>.cls-1{fill:none;stroke:#000;stroke-miterlimit:10;stroke-width:0.25px;}</style></defs><line class="cls-1" y1="1967.21" x2="1967.21" y2="1967.21"/><line class="cls-1" y1="1934.43" x2="1967.21" y2="1934.43"/><line class="cls-1" y1="1901.64" x2="1967.21" y2="1901.64"/><line class="cls-1" y1="1868.85" x2="1967.21" y2="1868.85"/><line class="cls-1" y1="1836.07" x2="1967.21" y2="1836.07"/><line class="cls-1" y1="1803.28" x2="1967.21" y2="1803.28"/><line class="cls-1" y1="1770.49" x2="1967.21" y2="1770.49"/><line class="cls-1" y1="1737.7" x2="1967.21" y2="1737.7"/><line class="cls-1" y1="1704.92" x2="1967.21" y2="1704.92"/><line class="cls-1" y1="1672.13" x2="1967.21" y2="1672.13"/><line class="cls-1" y1="1639.34" x2="1967.21" y2="1639.34"/><line class="cls-1" y1="1606.56" x2="1967.21" y2="1606.56"/><line class="cls-1" y1="1573.77" x2="1967.21" y2="1573.77"/><line class="cls-1" y1="1540.98" x2="1967.21" y2="1540.98"/><line class="cls-1" y1="1508.2" x2="1967.21" y2="1508.2"/><line class="cls-1" y1="1475.41" x2="1967.21" y2="1475.41"/><line class="cls-1" y1="1442.62" x2="1967.21" y2="1442.62"/><line class="cls-1" y1="1409.84" x2="1967.21" y2="1409.84"/><line class="cls-1" y1="1377.05" x2="1967.21" y2="1377.05"/><line class="cls-1" y1="1344.26" x2="1967.21" y2="1344.26"/><line class="cls-1" y1="1311.48" x2="1967.21" y2="1311.48"/><line class="cls-1" y1="1278.69" x2="1967.21" y2="1278.69"/><line class="cls-1" y1="1245.9" x2="1967.21" y2="1245.9"/><line class="cls-1" y1="1213.11" x2="1967.21" y2="1213.11"/><line class="cls-1" y1="1180.33" x2="1967.21" y2="1180.33"/><line class="cls-1" y1="1147.54" x2="1967.21" y2="1147.54"/><line class="cls-1" y1="1114.75" x2="1967.21" y2="1114.75"/><line class="cls-1" y1="1081.97" x2="1967.21" y2="1081.97"/><line class="cls-1" y1="1049.18" x2="1967.21" y2="1049.18"/><line class="cls-1" y1="1016.39" x2="1967.21" y2="1016.39"/><line class="cls-1" y1="983.61" x2="1967.21" y2="983.61"/><line class="cls-1" y1="950.82" x2="1967.21" y2="950.82"/><line class="cls-1" y1="918.03" x2="1967.21" y2="918.03"/><line class="cls-1" y1="885.25" x2="1967.21" y2="885.25"/><line class="cls-1" y1="852.46" x2="1967.21" y2="852.46"/><line class="cls-1" y1="819.67" x2="1967.21" y2="819.67"/><line class="cls-1" y1="786.89" x2="1967.21" y2="786.89"/><line class="cls-1" y1="754.1" x2="1967.21" y2="754.1"/><line class="cls-1" y1="721.31" x2="1967.21" y2="721.31"/><line class="cls-1" y1="688.52" x2="1967.21" y2="688.52"/><line class="cls-1" y1="655.74" x2="1967.21" y2="655.74"/><line class="cls-1" y1="622.95" x2="1967.21" y2="622.95"/><line class="cls-1" y1="590.16" x2="1967.21" y2="590.16"/><line class="cls-1" y1="557.38" x2="1967.21" y2="557.38"/><line class="cls-1" y1="524.59" x2="1967.21" y2="524.59"/><line class="cls-1" y1="491.8" x2="1967.21" y2="491.8"/><line class="cls-1" y1="459.02" x2="1967.21" y2="459.02"/><line class="cls-1" y1="426.23" x2="1967.21" y2="426.23"/><line class="cls-1" y1="393.44" x2="1967.21" y2="393.44"/><line class="cls-1" y1="360.66" x2="1967.21" y2="360.66"/><line class="cls-1" y1="327.87" x2="1967.21" y2="327.87"/><line class="cls-1" y1="295.08" x2="1967.21" y2="295.08"/><line class="cls-1" y1="262.3" x2="1967.21" y2="262.3"/><line class="cls-1" y1="229.51" x2="1967.21" y2="229.51"/><line class="cls-1" y1="196.72" x2="1967.21" y2="196.72"/><line class="cls-1" y1="163.93" x2="1967.21" y2="163.93"/><line class="cls-1" y1="131.15" x2="1967.21" y2="131.15"/><line class="cls-1" y1="98.36" x2="1967.21" y2="98.36"/><line class="cls-1" y1="65.57" x2="1967.21" y2="65.57"/><line class="cls-1" y1="32.79" x2="1967.21" y2="32.79"/><line class="cls-1" x1="1967.21" x2="1967.21" y2="2000"/><line class="cls-1" x1="1934.43" x2="1934.43" y2="2000"/><line class="cls-1" x1="1901.64" x2="1901.64" y2="2000"/><line class="cls-1" x1="1868.85" x2="1868.85" y2="2000"/><line class="cls-1" x1="1836.07" x2="1836.07" y2="2000"/><line class="cls-1" x1="1803.28" x2="1803.28" y2="2000"/><line class="cls-1" x1="1770.49" x2="1770.49" y2="2000"/><line class="cls-1" x1="1737.7" x2="1737.7" y2="2000"/><line class="cls-1" x1="1704.92" x2="1704.92" y2="2000"/><line class="cls-1" x1="1672.13" x2="1672.13" y2="2000"/><line class="cls-1" x1="1639.34" x2="1639.34" y2="2000"/><line class="cls-1" x1="1606.56" x2="1606.56" y2="2000"/><line class="cls-1" x1="1573.77" x2="1573.77" y2="2000"/><line class="cls-1" x1="1540.98" x2="1540.98" y2="2000"/><line class="cls-1" x1="1508.2" x2="1508.2" y2="2000"/><line class="cls-1" x1="1475.41" x2="1475.41" y2="2000"/><line class="cls-1" x1="1442.62" x2="1442.62" y2="2000"/><line class="cls-1" x1="1409.84" x2="1409.84" y2="2000"/><line class="cls-1" x1="1377.05" x2="1377.05" y2="2000"/><line class="cls-1" x1="1344.26" x2="1344.26" y2="2000"/><line class="cls-1" x1="1311.48" x2="1311.48" y2="2000"/><line class="cls-1" x1="1278.69" x2="1278.69" y2="2000"/><line class="cls-1" x1="1245.9" x2="1245.9" y2="2000"/><line class="cls-1" x1="1213.11" x2="1213.11" y2="2000"/><line class="cls-1" x1="1180.33" x2="1180.33" y2="2000"/><line class="cls-1" x1="1147.54" x2="1147.54" y2="2000"/><line class="cls-1" x1="1114.75" x2="1114.75" y2="2000"/><line class="cls-1" x1="1081.97" x2="1081.97" y2="2000"/><line class="cls-1" x1="1049.18" x2="1049.18" y2="2000"/><line class="cls-1" x1="1016.39" x2="1016.39" y2="2000"/><line class="cls-1" x1="983.61" x2="983.61" y2="2000"/><line class="cls-1" x1="950.82" x2="950.82" y2="2000"/><line class="cls-1" x1="918.03" x2="918.03" y2="2000"/><line class="cls-1" x1="885.25" x2="885.25" y2="2000"/><line class="cls-1" x1="852.46" x2="852.46" y2="2000"/><line class="cls-1" x1="819.67" x2="819.67" y2="2000"/><line class="cls-1" x1="786.89" x2="786.89" y2="2000"/><line class="cls-1" x1="754.1" x2="754.1" y2="2000"/><line class="cls-1" x1="721.31" x2="721.31" y2="2000"/><line class="cls-1" x1="688.52" x2="688.52" y2="2000"/><line class="cls-1" x1="655.74" x2="655.74" y2="2000"/><line class="cls-1" x1="622.95" x2="622.95" y2="2000"/><line class="cls-1" x1="590.16" x2="590.16" y2="2000"/><line class="cls-1" x1="557.38" x2="557.38" y2="2000"/><line class="cls-1" x1="524.59" x2="524.59" y2="2000"/><line class="cls-1" x1="491.8" x2="491.8" y2="2000"/><line class="cls-1" x1="459.02" x2="459.02" y2="2000"/><line class="cls-1" x1="426.23" x2="426.23" y2="2000"/><line class="cls-1" x1="393.44" x2="393.44" y2="2000"/><line class="cls-1" x1="360.66" x2="360.66" y2="2000"/><line class="cls-1" x1="327.87" x2="327.87" y2="2000"/><line class="cls-1" x1="295.08" x2="295.08" y2="2000"/><line class="cls-1" x1="262.3" x2="262.3" y2="2000"/><line class="cls-1" x1="229.51" x2="229.51" y2="2000"/><line class="cls-1" x1="196.72" x2="196.72" y2="2000"/><line class="cls-1" x1="163.93" x2="163.93" y2="2000"/><line class="cls-1" x1="131.15" x2="131.15" y2="2000"/><line class="cls-1" x1="98.36" x2="98.36" y2="2000"/><line class="cls-1" x1="65.57" x2="65.57" y2="2000"/><line class="cls-1" x1="32.79" x2="32.79" y2="2000"/><line class="cls-1" x1="1967.21" y1="1967.21" x2="3934.43" y2="1967.21"/><line class="cls-1" x1="1967.21" y1="1934.43" x2="3934.43" y2="1934.43"/><line class="cls-1" x1="1967.21" y1="1901.64" x2="3934.43" y2="1901.64"/><line class="cls-1" x1="1967.21" y1="1868.85" x2="3934.43" y2="1868.85"/><line class="cls-1" x1="1967.21" y1="1836.07" x2="3934.43" y2="1836.07"/><line class="cls-1" x1="1967.21" y1="1803.28" x2="3934.43" y2="1803.28"/><line class="cls-1" x1="1967.21" y1="1770.49" x2="3934.43" y2="1770.49"/><line class="cls-1" x1="1967.21" y1="1737.7" x2="3934.43" y2="1737.7"/><line class="cls-1" x1="1967.21" y1="1704.92" x2="3934.43" y2="1704.92"/><line class="cls-1" x1="1967.21" y1="1672.13" x2="3934.43" y2="1672.13"/><line class="cls-1" x1="1967.21" y1="1639.34" x2="3934.43" y2="1639.34"/><line class="cls-1" x1="1967.21" y1="1606.56" x2="3934.43" y2="1606.56"/><line class="cls-1" x1="1967.21" y1="1573.77" x2="3934.43" y2="1573.77"/><line class="cls-1" x1="1967.21" y1="1540.98" x2="3934.43" y2="1540.98"/><line class="cls-1" x1="1967.21" y1="1508.2" x2="3934.43" y2="1508.2"/><line class="cls-1" x1="1967.21" y1="1475.41" x2="3934.43" y2="1475.41"/><line class="cls-1" x1="1967.21" y1="1442.62" x2="3934.43" y2="1442.62"/><line class="cls-1" x1="1967.21" y1="1409.84" x2="3934.43" y2="1409.84"/><line class="cls-1" x1="1967.21" y1="1377.05" x2="3934.43" y2="1377.05"/><line class="cls-1" x1="1967.21" y1="1344.26" x2="3934.43" y2="1344.26"/><line class="cls-1" x1="1967.21" y1="1311.48" x2="3934.43" y2="1311.48"/><line class="cls-1" x1="1967.21" y1="1278.69" x2="3934.43" y2="1278.69"/><line class="cls-1" x1="1967.21" y1="1245.9" x2="3934.43" y2="1245.9"/><line class="cls-1" x1="1967.21" y1="1213.11" x2="3934.43" y2="1213.11"/><line class="cls-1" x1="1967.21" y1="1180.33" x2="3934.43" y2="1180.33"/><line class="cls-1" x1="1967.21" y1="1147.54" x2="3934.43" y2="1147.54"/><line class="cls-1" x1="1967.21" y1="1114.75" x2="3934.43" y2="1114.75"/><line class="cls-1" x1="1967.21" y1="1081.97" x2="3934.43" y2="1081.97"/><line class="cls-1" x1="1967.21" y1="1049.18" x2="3934.43" y2="1049.18"/><line class="cls-1" x1="1967.21" y1="1016.39" x2="3934.43" y2="1016.39"/><line class="cls-1" x1="1967.21" y1="983.61" x2="3934.43" y2="983.61"/><line class="cls-1" x1="1967.21" y1="950.82" x2="3934.43" y2="950.82"/><line class="cls-1" x1="1967.21" y1="918.03" x2="3934.43" y2="918.03"/><line class="cls-1" x1="1967.21" y1="885.25" x2="3934.43" y2="885.25"/><line class="cls-1" x1="1967.21" y1="852.46" x2="3934.43" y2="852.46"/><line class="cls-1" x1="1967.21" y1="819.67" x2="3934.43" y2="819.67"/><line class="cls-1" x1="1967.21" y1="786.89" x2="3934.43" y2="786.89"/><line class="cls-1" x1="1967.21" y1="754.1" x2="3934.43" y2="754.1"/><line class="cls-1" x1="1967.21" y1="721.31" x2="3934.43" y2="721.31"/><line class="cls-1" x1="1967.21" y1="688.52" x2="3934.43" y2="688.52"/><line class="cls-1" x1="1967.21" y1="655.74" x2="3934.43" y2="655.74"/><line class="cls-1" x1="1967.21" y1="622.95" x2="3934.43" y2="622.95"/><line class="cls-1" x1="1967.21" y1="590.16" x2="3934.43" y2="590.16"/><line class="cls-1" x1="1967.21" y1="557.38" x2="3934.43" y2="557.38"/><line class="cls-1" x1="1967.21" y1="524.59" x2="3934.43" y2="524.59"/><line class="cls-1" x1="1967.21" y1="491.8" x2="3934.43" y2="491.8"/><line class="cls-1" x1="1967.21" y1="459.02" x2="3934.43" y2="459.02"/><line class="cls-1" x1="1967.21" y1="426.23" x2="3934.43" y2="426.23"/><line class="cls-1" x1="1967.21" y1="393.44" x2="3934.43" y2="393.44"/><line class="cls-1" x1="1967.21" y1="360.66" x2="3934.43" y2="360.66"/><line class="cls-1" x1="1967.21" y1="327.87" x2="3934.43" y2="327.87"/><line class="cls-1" x1="1967.21" y1="295.08" x2="3934.43" y2="295.08"/><line class="cls-1" x1="1967.21" y1="262.3" x2="3934.43" y2="262.3"/><line class="cls-1" x1="1967.21" y1="229.51" x2="3934.43" y2="229.51"/><line class="cls-1" x1="1967.21" y1="196.72" x2="3934.43" y2="196.72"/><line class="cls-1" x1="1967.21" y1="163.93" x2="3934.43" y2="163.93"/><line class="cls-1" x1="1967.21" y1="131.15" x2="3934.43" y2="131.15"/><line class="cls-1" x1="1967.21" y1="98.36" x2="3934.43" y2="98.36"/><line class="cls-1" x1="1967.21" y1="65.57" x2="3934.43" y2="65.57"/><line class="cls-1" x1="1967.21" y1="32.79" x2="3934.43" y2="32.79"/><line class="cls-1" x1="3934.43" x2="3934.43" y2="2000"/><line class="cls-1" x1="3901.64" x2="3901.64" y2="2000"/><line class="cls-1" x1="3868.85" x2="3868.85" y2="2000"/><line class="cls-1" x1="3836.07" x2="3836.07" y2="2000"/><line class="cls-1" x1="3803.28" x2="3803.28" y2="2000"/><line class="cls-1" x1="3770.49" x2="3770.49" y2="2000"/><line class="cls-1" x1="3737.7" x2="3737.7" y2="2000"/><line class="cls-1" x1="3704.92" x2="3704.92" y2="2000"/><line class="cls-1" x1="3672.13" x2="3672.13" y2="2000"/><line class="cls-1" x1="3639.34" x2="3639.34" y2="2000"/><line class="cls-1" x1="3606.56" x2="3606.56" y2="2000"/><line class="cls-1" x1="3573.77" x2="3573.77" y2="2000"/><line class="cls-1" x1="3540.98" x2="3540.98" y2="2000"/><line class="cls-1" x1="3508.2" x2="3508.2" y2="2000"/><line class="cls-1" x1="3475.41" x2="3475.41" y2="2000"/><line class="cls-1" x1="3442.62" x2="3442.62" y2="2000"/><line class="cls-1" x1="3409.84" x2="3409.84" y2="2000"/><line class="cls-1" x1="3377.05" x2="3377.05" y2="2000"/><line class="cls-1" x1="3344.26" x2="3344.26" y2="2000"/><line class="cls-1" x1="3311.48" x2="3311.48" y2="2000"/><line class="cls-1" x1="3278.69" x2="3278.69" y2="2000"/><line class="cls-1" x1="3245.9" x2="3245.9" y2="2000"/><line class="cls-1" x1="3213.11" x2="3213.11" y2="2000"/><line class="cls-1" x1="3180.33" x2="3180.33" y2="2000"/><line class="cls-1" x1="3147.54" x2="3147.54" y2="2000"/><line class="cls-1" x1="3114.75" x2="3114.75" y2="2000"/><line class="cls-1" x1="3081.97" x2="3081.97" y2="2000"/><line class="cls-1" x1="3049.18" x2="3049.18" y2="2000"/><line class="cls-1" x1="3016.39" x2="3016.39" y2="2000"/><line class="cls-1" x1="2983.61" x2="2983.61" y2="2000"/><line class="cls-1" x1="2950.82" x2="2950.82" y2="2000"/><line class="cls-1" x1="2918.03" x2="2918.03" y2="2000"/><line class="cls-1" x1="2885.25" x2="2885.25" y2="2000"/><line class="cls-1" x1="2852.46" x2="2852.46" y2="2000"/><line class="cls-1" x1="2819.67" x2="2819.67" y2="2000"/><line class="cls-1" x1="2786.89" x2="2786.89" y2="2000"/><line class="cls-1" x1="2754.1" x2="2754.1" y2="2000"/><line class="cls-1" x1="2721.31" x2="2721.31" y2="2000"/><line class="cls-1" x1="2688.52" x2="2688.52" y2="2000"/><line class="cls-1" x1="2655.74" x2="2655.74" y2="2000"/><line class="cls-1" x1="2622.95" x2="2622.95" y2="2000"/><line class="cls-1" x1="2590.16" x2="2590.16" y2="2000"/><line class="cls-1" x1="2557.38" x2="2557.38" y2="2000"/><line class="cls-1" x1="2524.59" x2="2524.59" y2="2000"/><line class="cls-1" x1="2491.8" x2="2491.8" y2="2000"/><line class="cls-1" x1="2459.02" x2="2459.02" y2="2000"/><line class="cls-1" x1="2426.23" x2="2426.23" y2="2000"/><line class="cls-1" x1="2393.44" x2="2393.44" y2="2000"/><line class="cls-1" x1="2360.66" x2="2360.66" y2="2000"/><line class="cls-1" x1="2327.87" x2="2327.87" y2="2000"/><line class="cls-1" x1="2295.08" x2="2295.08" y2="2000"/><line class="cls-1" x1="2262.3" x2="2262.3" y2="2000"/><line class="cls-1" x1="2229.51" x2="2229.51" y2="2000"/><line class="cls-1" x1="2196.72" x2="2196.72" y2="2000"/><line class="cls-1" x1="2163.93" x2="2163.93" y2="2000"/><line class="cls-1" x1="2131.15" x2="2131.15" y2="2000"/><line class="cls-1" x1="2098.36" x2="2098.36" y2="2000"/><line class="cls-1" x1="2065.57" x2="2065.57" y2="2000"/><line class="cls-1" x1="2032.79" x2="2032.79" y2="2000"/><line class="cls-1" x1="2000" x2="2000" y2="2000"/><line class="cls-1" y1="3770.49" x2="1967.21" y2="3770.49"/><line class="cls-1" y1="3737.7" x2="1967.21" y2="3737.7"/><line class="cls-1" y1="3704.92" x2="1967.21" y2="3704.92"/><line class="cls-1" y1="3672.13" x2="1967.21" y2="3672.13"/><line class="cls-1" y1="3639.34" x2="1967.21" y2="3639.34"/><line class="cls-1" y1="3606.56" x2="1967.21" y2="3606.56"/><line class="cls-1" y1="3573.77" x2="1967.21" y2="3573.77"/><line class="cls-1" y1="3540.98" x2="1967.21" y2="3540.98"/><line class="cls-1" y1="3508.2" x2="1967.21" y2="3508.2"/><line class="cls-1" y1="3475.41" x2="1967.21" y2="3475.41"/><line class="cls-1" y1="3442.62" x2="1967.21" y2="3442.62"/><line class="cls-1" y1="3409.84" x2="1967.21" y2="3409.84"/><line class="cls-1" y1="3377.05" x2="1967.21" y2="3377.05"/><line class="cls-1" y1="3344.26" x2="1967.21" y2="3344.26"/><line class="cls-1" y1="3311.48" x2="1967.21" y2="3311.48"/><line class="cls-1" y1="3278.69" x2="1967.21" y2="3278.69"/><line class="cls-1" y1="3245.9" x2="1967.21" y2="3245.9"/><line class="cls-1" y1="3213.11" x2="1967.21" y2="3213.11"/><line class="cls-1" y1="3180.33" x2="1967.21" y2="3180.33"/><line class="cls-1" y1="3147.54" x2="1967.21" y2="3147.54"/><line class="cls-1" y1="3114.75" x2="1967.21" y2="3114.75"/><line class="cls-1" y1="3081.97" x2="1967.21" y2="3081.97"/><line class="cls-1" y1="3049.18" x2="1967.21" y2="3049.18"/><line class="cls-1" y1="3016.39" x2="1967.21" y2="3016.39"/><line class="cls-1" y1="2983.61" x2="1967.21" y2="2983.61"/><line class="cls-1" y1="2950.82" x2="1967.21" y2="2950.82"/><line class="cls-1" y1="2918.03" x2="1967.21" y2="2918.03"/><line class="cls-1" y1="2885.25" x2="1967.21" y2="2885.25"/><line class="cls-1" y1="2852.46" x2="1967.21" y2="2852.46"/><line class="cls-1" y1="2819.67" x2="1967.21" y2="2819.67"/><line class="cls-1" y1="2786.89" x2="1967.21" y2="2786.89"/><line class="cls-1" y1="2754.1" x2="1967.21" y2="2754.1"/><line class="cls-1" y1="2721.31" x2="1967.21" y2="2721.31"/><line class="cls-1" y1="2688.52" x2="1967.21" y2="2688.52"/><line class="cls-1" y1="2655.74" x2="1967.21" y2="2655.74"/><line class="cls-1" y1="2622.95" x2="1967.21" y2="2622.95"/><line class="cls-1" y1="2590.16" x2="1967.21" y2="2590.16"/><line class="cls-1" y1="2557.38" x2="1967.21" y2="2557.38"/><line class="cls-1" y1="2524.59" x2="1967.21" y2="2524.59"/><line class="cls-1" y1="2491.8" x2="1967.21" y2="2491.8"/><line class="cls-1" y1="2459.02" x2="1967.21" y2="2459.02"/><line class="cls-1" y1="2426.23" x2="1967.21" y2="2426.23"/><line class="cls-1" y1="2393.44" x2="1967.21" y2="2393.44"/><line class="cls-1" y1="2360.66" x2="1967.21" y2="2360.66"/><line class="cls-1" y1="2327.87" x2="1967.21" y2="2327.87"/><line class="cls-1" y1="2295.08" x2="1967.21" y2="2295.08"/><line class="cls-1" y1="2262.3" x2="1967.21" y2="2262.3"/><line class="cls-1" y1="2229.51" x2="1967.21" y2="2229.51"/><line class="cls-1" y1="2196.72" x2="1967.21" y2="2196.72"/><line class="cls-1" y1="2163.93" x2="1967.21" y2="2163.93"/><line class="cls-1" y1="2131.15" x2="1967.21" y2="2131.15"/><line class="cls-1" y1="2098.36" x2="1967.21" y2="2098.36"/><line class="cls-1" y1="2065.57" x2="1967.21" y2="2065.57"/><line class="cls-1" y1="2032.79" x2="1967.21" y2="2032.79"/><line class="cls-1" y1="2000" x2="1967.21" y2="2000"/><line class="cls-1" x1="1967.21" y1="1967.21" x2="1967.21" y2="3967.21"/><line class="cls-1" x1="1934.43" y1="1967.21" x2="1934.43" y2="3967.21"/><line class="cls-1" x1="1901.64" y1="1967.21" x2="1901.64" y2="3967.21"/><line class="cls-1" x1="1868.85" y1="1967.21" x2="1868.85" y2="3967.21"/><line class="cls-1" x1="1836.07" y1="1967.21" x2="1836.07" y2="3967.21"/><line class="cls-1" x1="1803.28" y1="1967.21" x2="1803.28" y2="3967.21"/><line class="cls-1" x1="1770.49" y1="1967.21" x2="1770.49" y2="3967.21"/><line class="cls-1" x1="1737.7" y1="1967.21" x2="1737.7" y2="3967.21"/><line class="cls-1" x1="1704.92" y1="1967.21" x2="1704.92" y2="3967.21"/><line class="cls-1" x1="1672.13" y1="1967.21" x2="1672.13" y2="3967.21"/><line class="cls-1" x1="1639.34" y1="1967.21" x2="1639.34" y2="3967.21"/><line class="cls-1" x1="1606.56" y1="1967.21" x2="1606.56" y2="3967.21"/><line class="cls-1" x1="1573.77" y1="1967.21" x2="1573.77" y2="3967.21"/><line class="cls-1" x1="1540.98" y1="1967.21" x2="1540.98" y2="3967.21"/><line class="cls-1" x1="1508.2" y1="1967.21" x2="1508.2" y2="3967.21"/><line class="cls-1" x1="1475.41" y1="1967.21" x2="1475.41" y2="3967.21"/><line class="cls-1" x1="1442.62" y1="1967.21" x2="1442.62" y2="3967.21"/><line class="cls-1" x1="1409.84" y1="1967.21" x2="1409.84" y2="3967.21"/><line class="cls-1" x1="1377.05" y1="1967.21" x2="1377.05" y2="3967.21"/><line class="cls-1" x1="1344.26" y1="1967.21" x2="1344.26" y2="3967.21"/><line class="cls-1" x1="1311.48" y1="1967.21" x2="1311.48" y2="3967.21"/><line class="cls-1" x1="1278.69" y1="1967.21" x2="1278.69" y2="3967.21"/><line class="cls-1" x1="1245.9" y1="1967.21" x2="1245.9" y2="3967.21"/><line class="cls-1" x1="1213.11" y1="1967.21" x2="1213.11" y2="3967.21"/><line class="cls-1" x1="1180.33" y1="1967.21" x2="1180.33" y2="3967.21"/><line class="cls-1" x1="1147.54" y1="1967.21" x2="1147.54" y2="3967.21"/><line class="cls-1" x1="1114.75" y1="1967.21" x2="1114.75" y2="3967.21"/><line class="cls-1" x1="1081.97" y1="1967.21" x2="1081.97" y2="3967.21"/><line class="cls-1" x1="1049.18" y1="1967.21" x2="1049.18" y2="3967.21"/><line class="cls-1" x1="1016.39" y1="1967.21" x2="1016.39" y2="3967.21"/><line class="cls-1" x1="983.61" y1="1967.21" x2="983.61" y2="3967.21"/><line class="cls-1" x1="950.82" y1="1967.21" x2="950.82" y2="3967.21"/><line class="cls-1" x1="918.03" y1="1967.21" x2="918.03" y2="3967.21"/><line class="cls-1" x1="885.25" y1="1967.21" x2="885.25" y2="3967.21"/><line class="cls-1" x1="852.46" y1="1967.21" x2="852.46" y2="3967.21"/><line class="cls-1" x1="819.67" y1="1967.21" x2="819.67" y2="3967.21"/><line class="cls-1" x1="786.89" y1="1967.21" x2="786.89" y2="3967.21"/><line class="cls-1" x1="754.1" y1="1967.21" x2="754.1" y2="3967.21"/><line class="cls-1" x1="721.31" y1="1967.21" x2="721.31" y2="3967.21"/><line class="cls-1" x1="688.52" y1="1967.21" x2="688.52" y2="3967.21"/><line class="cls-1" x1="655.74" y1="1967.21" x2="655.74" y2="3967.21"/><line class="cls-1" x1="622.95" y1="1967.21" x2="622.95" y2="3967.21"/><line class="cls-1" x1="590.16" y1="1967.21" x2="590.16" y2="3967.21"/><line class="cls-1" x1="557.38" y1="1967.21" x2="557.38" y2="3967.21"/><line class="cls-1" x1="524.59" y1="1967.21" x2="524.59" y2="3967.21"/><line class="cls-1" x1="491.8" y1="1967.21" x2="491.8" y2="3967.21"/><line class="cls-1" x1="459.02" y1="1967.21" x2="459.02" y2="3967.21"/><line class="cls-1" x1="426.23" y1="1967.21" x2="426.23" y2="3967.21"/><line class="cls-1" x1="393.44" y1="1967.21" x2="393.44" y2="3967.21"/><line class="cls-1" x1="360.66" y1="1967.21" x2="360.66" y2="3967.21"/><line class="cls-1" x1="327.87" y1="1967.21" x2="327.87" y2="3967.21"/><line class="cls-1" x1="295.08" y1="1967.21" x2="295.08" y2="3967.21"/><line class="cls-1" x1="262.3" y1="1967.21" x2="262.3" y2="3967.21"/><line class="cls-1" x1="229.51" y1="1967.21" x2="229.51" y2="3967.21"/><line class="cls-1" x1="196.72" y1="1967.21" x2="196.72" y2="3967.21"/><line class="cls-1" x1="163.93" y1="1967.21" x2="163.93" y2="3967.21"/><line class="cls-1" x1="131.15" y1="1967.21" x2="131.15" y2="3967.21"/><line class="cls-1" x1="98.36" y1="1967.21" x2="98.36" y2="3967.21"/><line class="cls-1" x1="65.57" y1="1967.21" x2="65.57" y2="3967.21"/><line class="cls-1" x1="32.79" y1="1967.21" x2="32.79" y2="3967.21"/><line class="cls-1" x1="1967.21" y1="3770.49" x2="3934.43" y2="3770.49"/><line class="cls-1" x1="1967.21" y1="3737.7" x2="3934.43" y2="3737.7"/><line class="cls-1" x1="1967.21" y1="3704.92" x2="3934.43" y2="3704.92"/><line class="cls-1" x1="1967.21" y1="3672.13" x2="3934.43" y2="3672.13"/><line class="cls-1" x1="1967.21" y1="3639.34" x2="3934.43" y2="3639.34"/><line class="cls-1" x1="1967.21" y1="3606.56" x2="3934.43" y2="3606.56"/><line class="cls-1" x1="1967.21" y1="3573.77" x2="3934.43" y2="3573.77"/><line class="cls-1" x1="1967.21" y1="3540.98" x2="3934.43" y2="3540.98"/><line class="cls-1" x1="1967.21" y1="3508.2" x2="3934.43" y2="3508.2"/><line class="cls-1" x1="1967.21" y1="3475.41" x2="3934.43" y2="3475.41"/><line class="cls-1" x1="1967.21" y1="3442.62" x2="3934.43" y2="3442.62"/><line class="cls-1" x1="1967.21" y1="3409.84" x2="3934.43" y2="3409.84"/><line class="cls-1" x1="1967.21" y1="3377.05" x2="3934.43" y2="3377.05"/><line class="cls-1" x1="1967.21" y1="3344.26" x2="3934.43" y2="3344.26"/><line class="cls-1" x1="1967.21" y1="3311.48" x2="3934.43" y2="3311.48"/><line class="cls-1" x1="1967.21" y1="3278.69" x2="3934.43" y2="3278.69"/><line class="cls-1" x1="1967.21" y1="3245.9" x2="3934.43" y2="3245.9"/><line class="cls-1" x1="1967.21" y1="3213.11" x2="3934.43" y2="3213.11"/><line class="cls-1" x1="1967.21" y1="3180.33" x2="3934.43" y2="3180.33"/><line class="cls-1" x1="1967.21" y1="3147.54" x2="3934.43" y2="3147.54"/><line class="cls-1" x1="1967.21" y1="3114.75" x2="3934.43" y2="3114.75"/><line class="cls-1" x1="1967.21" y1="3081.97" x2="3934.43" y2="3081.97"/><line class="cls-1" x1="1967.21" y1="3049.18" x2="3934.43" y2="3049.18"/><line class="cls-1" x1="1967.21" y1="3016.39" x2="3934.43" y2="3016.39"/><line class="cls-1" x1="1967.21" y1="2983.61" x2="3934.43" y2="2983.61"/><line class="cls-1" x1="1967.21" y1="2950.82" x2="3934.43" y2="2950.82"/><line class="cls-1" x1="1967.21" y1="2918.03" x2="3934.43" y2="2918.03"/><line class="cls-1" x1="1967.21" y1="2885.25" x2="3934.43" y2="2885.25"/><line class="cls-1" x1="1967.21" y1="2852.46" x2="3934.43" y2="2852.46"/><line class="cls-1" x1="1967.21" y1="2819.67" x2="3934.43" y2="2819.67"/><line class="cls-1" x1="1967.21" y1="2786.89" x2="3934.43" y2="2786.89"/><line class="cls-1" x1="1967.21" y1="2754.1" x2="3934.43" y2="2754.1"/><line class="cls-1" x1="1967.21" y1="2721.31" x2="3934.43" y2="2721.31"/><line class="cls-1" x1="1967.21" y1="2688.52" x2="3934.43" y2="2688.52"/><line class="cls-1" x1="1967.21" y1="2655.74" x2="3934.43" y2="2655.74"/><line class="cls-1" x1="1967.21" y1="2622.95" x2="3934.43" y2="2622.95"/><line class="cls-1" x1="1967.21" y1="2590.16" x2="3934.43" y2="2590.16"/><line class="cls-1" x1="1967.21" y1="2557.38" x2="3934.43" y2="2557.38"/><line class="cls-1" x1="1967.21" y1="2524.59" x2="3934.43" y2="2524.59"/><line class="cls-1" x1="1967.21" y1="2491.8" x2="3934.43" y2="2491.8"/><line class="cls-1" x1="1967.21" y1="2459.02" x2="3934.43" y2="2459.02"/><line class="cls-1" x1="1967.21" y1="2426.23" x2="3934.43" y2="2426.23"/><line class="cls-1" x1="1967.21" y1="2393.44" x2="3934.43" y2="2393.44"/><line class="cls-1" x1="1967.21" y1="2360.66" x2="3934.43" y2="2360.66"/><line class="cls-1" x1="1967.21" y1="2327.87" x2="3934.43" y2="2327.87"/><line class="cls-1" x1="1967.21" y1="2295.08" x2="3934.43" y2="2295.08"/><line class="cls-1" x1="1967.21" y1="2262.3" x2="3934.43" y2="2262.3"/><line class="cls-1" x1="1967.21" y1="2229.51" x2="3934.43" y2="2229.51"/><line class="cls-1" x1="1967.21" y1="2196.72" x2="3934.43" y2="2196.72"/><line class="cls-1" x1="1967.21" y1="2163.93" x2="3934.43" y2="2163.93"/><line class="cls-1" x1="1967.21" y1="2131.15" x2="3934.43" y2="2131.15"/><line class="cls-1" x1="1967.21" y1="2098.36" x2="3934.43" y2="2098.36"/><line class="cls-1" x1="1967.21" y1="2065.57" x2="3934.43" y2="2065.57"/><line class="cls-1" x1="1967.21" y1="2032.79" x2="3934.43" y2="2032.79"/><line class="cls-1" x1="1967.21" y1="2000" x2="3934.43" y2="2000"/><line class="cls-1" x1="3934.43" y1="1967.21" x2="3934.43" y2="3967.21"/><line class="cls-1" x1="3901.64" y1="1967.21" x2="3901.64" y2="3967.21"/><line class="cls-1" x1="3868.85" y1="1967.21" x2="3868.85" y2="3967.21"/><line class="cls-1" x1="3836.07" y1="1967.21" x2="3836.07" y2="3967.21"/><line class="cls-1" x1="3803.28" y1="1967.21" x2="3803.28" y2="3967.21"/><line class="cls-1" x1="3770.49" y1="1967.21" x2="3770.49" y2="3967.21"/><line class="cls-1" x1="3737.7" y1="1967.21" x2="3737.7" y2="3967.21"/><line class="cls-1" x1="3704.92" y1="1967.21" x2="3704.92" y2="3967.21"/><line class="cls-1" x1="3672.13" y1="1967.21" x2="3672.13" y2="3967.21"/><line class="cls-1" x1="3639.34" y1="1967.21" x2="3639.34" y2="3967.21"/><line class="cls-1" x1="3606.56" y1="1967.21" x2="3606.56" y2="3967.21"/><line class="cls-1" x1="3573.77" y1="1967.21" x2="3573.77" y2="3967.21"/><line class="cls-1" x1="3540.98" y1="1967.21" x2="3540.98" y2="3967.21"/><line class="cls-1" x1="3508.2" y1="1967.21" x2="3508.2" y2="3967.21"/><line class="cls-1" x1="3475.41" y1="1967.21" x2="3475.41" y2="3967.21"/><line class="cls-1" x1="3442.62" y1="1967.21" x2="3442.62" y2="3967.21"/><line class="cls-1" x1="3409.84" y1="1967.21" x2="3409.84" y2="3967.21"/><line class="cls-1" x1="3377.05" y1="1967.21" x2="3377.05" y2="3967.21"/><line class="cls-1" x1="3344.26" y1="1967.21" x2="3344.26" y2="3967.21"/><line class="cls-1" x1="3311.48" y1="1967.21" x2="3311.48" y2="3967.21"/><line class="cls-1" x1="3278.69" y1="1967.21" x2="3278.69" y2="3967.21"/><line class="cls-1" x1="3245.9" y1="1967.21" x2="3245.9" y2="3967.21"/><line class="cls-1" x1="3213.11" y1="1967.21" x2="3213.11" y2="3967.21"/><line class="cls-1" x1="3180.33" y1="1967.21" x2="3180.33" y2="3967.21"/><line class="cls-1" x1="3147.54" y1="1967.21" x2="3147.54" y2="3967.21"/><line class="cls-1" x1="3114.75" y1="1967.21" x2="3114.75" y2="3967.21"/><line class="cls-1" x1="3081.97" y1="1967.21" x2="3081.97" y2="3967.21"/><line class="cls-1" x1="3049.18" y1="1967.21" x2="3049.18" y2="3967.21"/><line class="cls-1" x1="3016.39" y1="1967.21" x2="3016.39" y2="3967.21"/><line class="cls-1" x1="2983.61" y1="1967.21" x2="2983.61" y2="3967.21"/><line class="cls-1" x1="2950.82" y1="1967.21" x2="2950.82" y2="3967.21"/><line class="cls-1" x1="2918.03" y1="1967.21" x2="2918.03" y2="3967.21"/><line class="cls-1" x1="2885.25" y1="1967.21" x2="2885.25" y2="3967.21"/><line class="cls-1" x1="2852.46" y1="1967.21" x2="2852.46" y2="3967.21"/><line class="cls-1" x1="2819.67" y1="1967.21" x2="2819.67" y2="3967.21"/><line class="cls-1" x1="2786.89" y1="1967.21" x2="2786.89" y2="3967.21"/><line class="cls-1" x1="2754.1" y1="1967.21" x2="2754.1" y2="3967.21"/><line class="cls-1" x1="2721.31" y1="1967.21" x2="2721.31" y2="3967.21"/><line class="cls-1" x1="2688.52" y1="1967.21" x2="2688.52" y2="3967.21"/><line class="cls-1" x1="2655.74" y1="1967.21" x2="2655.74" y2="3967.21"/><line class="cls-1" x1="2622.95" y1="1967.21" x2="2622.95" y2="3967.21"/><line class="cls-1" x1="2590.16" y1="1967.21" x2="2590.16" y2="3967.21"/><line class="cls-1" x1="2557.38" y1="1967.21" x2="2557.38" y2="3967.21"/><line class="cls-1" x1="2524.59" y1="1967.21" x2="2524.59" y2="3967.21"/><line class="cls-1" x1="2491.8" y1="1967.21" x2="2491.8" y2="3967.21"/><line class="cls-1" x1="2459.02" y1="1967.21" x2="2459.02" y2="3967.21"/><line class="cls-1" x1="2426.23" y1="1967.21" x2="2426.23" y2="3967.21"/><line class="cls-1" x1="2393.44" y1="1967.21" x2="2393.44" y2="3967.21"/><line class="cls-1" x1="2360.66" y1="1967.21" x2="2360.66" y2="3967.21"/><line class="cls-1" x1="2327.87" y1="1967.21" x2="2327.87" y2="3967.21"/><line class="cls-1" x1="2295.08" y1="1967.21" x2="2295.08" y2="3967.21"/><line class="cls-1" x1="2262.3" y1="1967.21" x2="2262.3" y2="3967.21"/><line class="cls-1" x1="2229.51" y1="1967.21" x2="2229.51" y2="3967.21"/><line class="cls-1" x1="2196.72" y1="1967.21" x2="2196.72" y2="3967.21"/><line class="cls-1" x1="2163.93" y1="1967.21" x2="2163.93" y2="3967.21"/><line class="cls-1" x1="2131.15" y1="1967.21" x2="2131.15" y2="3967.21"/><line class="cls-1" x1="2098.36" y1="1967.21" x2="2098.36" y2="3967.21"/><line class="cls-1" x1="2065.57" y1="1967.21" x2="2065.57" y2="3967.21"/><line class="cls-1" x1="2032.79" y1="1967.21" x2="2032.79" y2="3967.21"/><line class="cls-1" x1="2000" y1="1967.21" x2="2000" y2="3967.21"/></svg>