<?xml version="1.0" encoding="UTF-8"?><svg version="1.1" xmlns="http://www.w3.org/2000/svg" xmlns:xlink="http://www.w3.org/1999/xlink" viewBox="0 0 1600 1200" width="1600" height="1200" x="0px" y="0px">
    
    
    <!-- ITEM 0 -->
    <g>
        <defs>
            <clipPath id="clip-path-id-viewbox-item-0">
                <rect x="0.0" y="0.0" width="800.0" height="801.0"/>
            </clipPath>
        </defs>
        <g transform="translate(1094.0 652.0) rotate(0.0 230.0 230.0) scale(0.575 0.5742821473158551)">
            <g clip-path="url(#clip-path-id-viewbox-item-0)" transform="translate(-0.0 -0.0)">
                
<circle style="fill:#FECE2F;" cx="400" cy="400.725" r="400"/>

            </g>
        </g>
    </g>
    
    <!-- ITEM 1 -->
    <g>
        <defs>
            <clipPath id="clip-path-id-viewbox-item-1">
                <rect x="0.0" y="0.0" width="427.95" height="230.74"/>
            </clipPath>
        </defs>
        <g transform="translate(46.0 579.0) rotate(0.0 492.5 266.5) scale(2.301670755929431 2.3099592615064575)">
            <g clip-path="url(#clip-path-id-viewbox-item-1)" transform="translate(-0.0 -0.0)">
                
<g>
	
		<ellipse transform="matrix(0.3573 -0.934 0.934 0.3573 29.7751 274.0081)" style="fill:#FECE2F;" cx="213.975" cy="115.37" rx="88.017" ry="226.575"/>
</g>

            </g>
        </g>
    </g>
    
    <!-- ITEM 2 -->
    <g>
        <defs>
            <clipPath id="clip-path-id-viewbox-item-2">
                <rect x="0.0" y="0.0" width="158.646" height="153.228"/>
            </clipPath>
        </defs>
        <g transform="translate(1149.0 636.0) rotate(0.0 180.5 175.0) scale(2.275506473532267 2.284177826506905)">
            <g clip-path="url(#clip-path-id-viewbox-item-2)" transform="translate(-0.0 -0.0)">
                
<g>
	<g>
		<path style="fill:#FECE2F;" d="M145.523,91.5l-30.641,45.301c-2.59,3.83-6.534,6.536-11.039,7.576l-0.631,0.146L154.339,1.326v0    c2.644,3.778,3.765,8.415,3.136,12.983l-9.868,71.745C147.34,88.006,146.626,89.869,145.523,91.5z"/>
		<path style="fill:#1A1A1A;" d="M103.211,145.523c-0.282,0-0.555-0.119-0.747-0.335c-0.243-0.273-0.317-0.657-0.194-1.001    L153.398,0.99c0.125-0.352,0.438-0.604,0.808-0.655c0.378-0.049,0.739,0.112,0.953,0.418c2.798,3.997,3.973,8.86,3.307,13.693    l-9.867,71.745c-0.287,2.092-1.064,4.122-2.247,5.869l-30.642,45.301c-2.74,4.053-6.875,6.891-11.643,7.991l-0.631,0.146    C103.362,145.515,103.287,145.523,103.211,145.523z M154.582,3.621l-49.797,139.47c3.778-1.152,7.038-3.552,9.269-6.85    l30.642-45.301l0,0c1.011-1.495,1.676-3.232,1.923-5.021l9.867-71.745C156.988,10.514,156.315,6.835,154.582,3.621z"/>
	</g>
	<g>
		<path style="fill:#FECE2F;" d="M10.816,152.228h82.535c4.701,0,8.88-1.306,9.512-7.052c-5.594,0-101.863,0-101.863,0    S2.458,152.228,10.816,152.228z"/>
		<path style="fill:#1A1A1A;" d="M93.352,153.228H10.816c-9.066,0-10.779-7.771-10.796-7.85c-0.061-0.294,0.014-0.601,0.204-0.834    c0.189-0.233,0.475-0.369,0.775-0.369h101.864c0.284,0,0.555,0.121,0.745,0.333c0.189,0.212,0.28,0.494,0.249,0.777    C102.985,153.228,95.735,153.228,93.352,153.228z M2.392,146.176c0.802,1.82,2.989,5.052,8.424,5.052h82.536    c4.999,0,7.559-1.525,8.338-5.052H2.392z"/>
	</g>
	<g>
		<polygon style="fill:#FFFFFF;" points="1,145.176 102.863,145.176 119.188,55.327 34.04,55.327   "/>
		<path style="fill:#1A1A1A;" d="M102.864,146.176H1c-0.327,0-0.633-0.16-0.82-0.428c-0.187-0.268-0.231-0.611-0.118-0.917    l33.041-89.849c0.145-0.394,0.52-0.655,0.938-0.655h85.147c0.297,0,0.578,0.131,0.768,0.359c0.19,0.228,0.27,0.528,0.216,0.819    l-16.323,89.849C103.761,145.83,103.347,146.176,102.864,146.176z M2.433,144.176h99.596l15.961-87.849H34.738L2.433,144.176z"/>
	</g>
	<g>
		<polygon style="fill:#1A1A1A;" points="142.695,86.67 102.863,145.176 119.188,55.327 154.579,1   "/>
		<path style="fill:#1A1A1A;" d="M102.864,146.176c-0.127,0-0.256-0.024-0.379-0.075c-0.438-0.179-0.689-0.639-0.605-1.104    l16.324-89.849c0.024-0.131,0.074-0.256,0.146-0.367l35.391-54.327c0.255-0.393,0.752-0.554,1.188-0.391    c0.439,0.164,0.705,0.61,0.641,1.074l-11.884,85.669c-0.021,0.153-0.077,0.298-0.164,0.426l-39.831,58.506    C103.5,146.019,103.187,146.176,102.864,146.176z M120.136,55.704l-15.445,85.012L141.737,86.3l11.236-81.003L120.136,55.704z     M142.695,86.67h0.01H142.695z"/>
	</g>
	<g>
		<path style="fill:#FECE2F;" d="M80.362,123.737l6.708-0.007c1.079-0.001,1.796,0.728,1.601,1.632l-1.227,5.681    c-0.199,0.922-1.248,1.672-2.342,1.672H78.3c-1.092,0-1.803-0.749-1.588-1.67l1.321-5.674    C78.243,124.468,79.285,123.738,80.362,123.737z M60.361,125.386l-1.478,5.663c-0.24,0.919,0.446,1.667,1.534,1.667h6.775    c1.089,0,2.155-0.748,2.38-1.669l1.384-5.67c0.22-0.901-0.473-1.629-1.547-1.628l-6.681,0.007    C61.655,123.756,60.596,124.485,60.361,125.386z M42.76,125.401l-1.634,5.651c-0.265,0.917,0.397,1.663,1.48,1.663h6.747    c1.085,0,2.168-0.747,2.418-1.665l1.54-5.658c0.245-0.9-0.425-1.626-1.495-1.625l-6.654,0.007    C44.096,123.775,43.02,124.502,42.76,125.401z M25.232,125.415l-1.788,5.64c-0.29,0.916,0.348,1.66,1.426,1.66h6.719    c1.08,0,2.18-0.745,2.456-1.662l1.695-5.647c0.27-0.898-0.376-1.623-1.442-1.622l-6.626,0.007    C26.608,123.793,25.516,124.519,25.232,125.415z M80.972,112.747l-1.268,5.447c-0.206,0.884,0.494,1.602,1.564,1.6l6.666-0.01    c1.072-0.002,2.097-0.722,2.288-1.608l1.177-5.454c0.187-0.867-0.519-1.566-1.576-1.564l-6.576,0.016    C82.193,111.178,81.174,111.88,80.972,112.747z M63.649,112.787l-1.419,5.437c-0.23,0.882,0.446,1.598,1.512,1.597l6.639-0.01    c1.068-0.002,2.109-0.721,2.324-1.604l1.329-5.443c0.211-0.866-0.472-1.563-1.525-1.561l-6.549,0.016    C64.909,111.221,63.875,111.922,63.649,112.787z M46.395,112.827l-1.568,5.426c-0.255,0.881,0.399,1.595,1.46,1.594l6.613-0.01    c1.063-0.002,2.121-0.72,2.361-1.601l1.479-5.432c0.235-0.864-0.425-1.56-1.474-1.558l-6.523,0.016    C47.695,111.264,46.644,111.964,46.395,112.827z M29.21,112.866l-1.717,5.416c-0.279,0.879,0.352,1.592,1.409,1.591l6.586-0.01    c1.059-0.002,2.133-0.718,2.397-1.598l1.628-5.422c0.259-0.862-0.379-1.557-1.424-1.555l-6.497,0.016    C30.549,111.307,29.483,112.005,29.21,112.866z M83.796,100.621l-1.219,5.234c-0.198,0.849,0.492,1.537,1.541,1.534l6.536-0.019    c1.051-0.003,2.052-0.697,2.236-1.547l1.131-5.24c0.18-0.833-0.515-1.504-1.552-1.5l-6.448,0.025    C84.985,99.112,83.99,99.788,83.796,100.621z M66.808,100.684l-1.363,5.224c-0.221,0.848,0.446,1.534,1.491,1.531l6.51-0.019    c1.047-0.003,2.064-0.695,2.271-1.544l1.277-5.23c0.203-0.832-0.47-1.501-1.503-1.497l-6.423,0.025    C68.036,99.178,67.025,99.853,66.808,100.684z M49.887,100.747l-1.507,5.214c-0.245,0.846,0.4,1.531,1.441,1.528l6.484-0.019    c1.043-0.003,2.075-0.694,2.306-1.541l1.421-5.22c0.226-0.83-0.425-1.498-1.454-1.494L52.18,99.24    C51.153,99.244,50.126,99.917,49.887,100.747z M33.032,100.809l-1.65,5.204c-0.268,0.845,0.355,1.528,1.392,1.525l6.458-0.019    c1.038-0.003,2.087-0.693,2.341-1.538l1.564-5.21c0.249-0.829-0.381-1.496-1.406-1.492l-6.373,0.025    C34.336,99.309,33.294,99.982,33.032,100.809z M86.51,88.964l-1.172,5.032c-0.19,0.817,0.489,1.476,1.518,1.472l6.41-0.028    c1.031-0.004,2.01-0.672,2.186-1.49l1.088-5.038c0.173-0.801-0.512-1.445-1.529-1.44l-6.325,0.033    C87.67,87.512,86.696,88.164,86.51,88.964z M69.845,89.049l-1.311,5.023c-0.213,0.815,0.445,1.474,1.47,1.469l6.385-0.028    c1.027-0.004,2.021-0.671,2.22-1.487l1.228-5.029c0.195-0.8-0.468-1.443-1.482-1.437l-6.301,0.033    C71.042,87.599,70.053,88.249,69.845,89.049z M53.244,89.133l-1.449,5.014c-0.235,0.814,0.401,1.471,1.422,1.467l6.36-0.027    c1.023-0.004,2.032-0.67,2.254-1.484l1.367-5.02c0.217-0.799-0.425-1.44-1.435-1.435l-6.277,0.033    C54.478,87.685,53.475,88.335,53.244,89.133z M36.707,89.216l-1.587,5.005c-0.257,0.812,0.358,1.468,1.375,1.464l6.335-0.027    c1.019-0.004,2.043-0.669,2.287-1.482l1.504-5.011c0.239-0.797-0.382-1.438-1.388-1.432l-6.253,0.033    C37.977,87.772,36.959,88.42,36.707,89.216z M89.121,77.75l-1.128,4.842c-0.183,0.786,0.487,1.419,1.496,1.414l6.288-0.035    c1.011-0.006,1.969-0.649,2.139-1.436l1.047-4.847c0.167-0.771-0.508-1.39-1.506-1.383l-6.207,0.04    C90.253,76.351,89.301,76.979,89.121,77.75z M72.767,77.854l-1.262,4.834c-0.205,0.784,0.444,1.417,1.45,1.411l6.264-0.035    c1.007-0.006,1.98-0.648,2.171-1.433l1.181-4.839c0.188-0.77-0.466-1.387-1.461-1.381l-6.184,0.04    C73.935,76.457,72.968,77.085,72.767,77.854z M56.474,77.957l-1.395,4.826c-0.226,0.783,0.402,1.414,1.404,1.409l6.241-0.035    c1.003-0.006,1.99-0.647,2.204-1.431l1.315-4.831c0.209-0.769-0.425-1.385-1.415-1.379l-6.161,0.04    C57.677,76.563,56.696,77.19,56.474,77.957z M40.243,78.061l-1.527,4.817c-0.248,0.781,0.36,1.412,1.358,1.406l6.217-0.035    c1-0.006,2.001-0.646,2.236-1.428l1.448-4.822c0.23-0.767-0.383-1.383-1.37-1.376l-6.138,0.04    C41.481,76.669,40.486,77.294,40.243,78.061z M91.635,66.953l-1.086,4.663c-0.176,0.756,0.484,1.365,1.475,1.358l6.172-0.043    c0.992-0.007,1.93-0.628,2.093-1.385l1.008-4.668c0.16-0.743-0.504-1.337-1.484-1.33l-6.094,0.047    C92.74,65.605,91.808,66.211,91.635,66.953z M75.58,67.075l-1.215,4.655c-0.197,0.755,0.443,1.363,1.43,1.356l6.149-0.042    c0.989-0.007,1.94-0.627,2.125-1.382l1.138-4.66c0.181-0.742-0.464-1.335-1.44-1.328l-6.071,0.047    C76.72,65.729,75.773,66.335,75.58,67.075z M59.585,67.197l-1.343,4.647c-0.218,0.754,0.402,1.361,1.385,1.354l6.126-0.042    c0.985-0.007,1.951-0.625,2.156-1.38l1.267-4.652c0.202-0.74-0.424-1.333-1.397-1.326l-6.049,0.047    C60.758,65.853,59.798,66.457,59.585,67.197z M43.648,67.318l-1.471,4.64c-0.239,0.753,0.362,1.359,1.341,1.352l6.103-0.042    c0.981-0.007,1.961-0.624,2.187-1.378l1.394-4.644c0.222-0.739-0.384-1.331-1.353-1.323l-6.026,0.047    C44.856,65.976,43.882,66.58,43.648,67.318z"/>
	</g>
</g>

            </g>
        </g>
    </g>
    
    <!-- ITEM 3 -->
    <g>
        <defs>
            <clipPath id="clip-path-id-viewbox-item-3">
                <rect x="0.0" y="0.0" width="304.089" height="138.019"/>
            </clipPath>
        </defs>
        <g transform="translate(284.0 710.0) rotate(0.0 347.0 158.5) scale(2.282226584980055 2.296785225222614)">
            <g clip-path="url(#clip-path-id-viewbox-item-3)" transform="translate(-0.0 -0.0)">
                
<g>
	
		<ellipse transform="matrix(0.3573 -0.934 0.934 0.3573 33.2707 186.3661)" style="fill:#1A1A1A;" cx="152.044" cy="69.009" rx="38.823" ry="161.022"/>
	<path style="fill:#1A1A1A;" d="M271.878,138.013c-6.829,0-14.659-0.561-23.423-1.695c-31.102-4.026-70.394-14.721-110.638-30.114   S61.175,72.554,35.325,54.797C9.12,36.796-3.172,21.286,0.714,11.126C4.601,0.967,24.104-2.382,55.634,1.7   c31.102,4.026,70.394,14.721,110.638,30.114s76.643,33.65,102.492,51.407c26.205,18.001,38.497,33.511,34.61,43.671   C300.568,134.228,289.616,138.013,271.878,138.013z M32.194,2.01c-16.678,0-27.14,3.368-29.612,9.831   c-3.472,9.078,8.875,24.134,33.875,41.308c25.724,17.67,61.975,35.849,102.075,51.188s79.229,25.992,110.18,29.999   c30.077,3.892,49.321,0.92,52.795-8.158l0,0c3.472-9.078-8.875-24.134-33.875-41.308c-25.724-17.67-61.975-35.849-102.075-51.188   S86.327,7.69,55.377,3.684C46.712,2.562,38.942,2.01,32.194,2.01z"/>
</g>

            </g>
        </g>
    </g>
    
    <!-- ITEM 4 -->
    <g>
        <defs>
            <clipPath id="clip-path-id-viewbox-item-4">
                <rect x="0.0" y="0.0" width="489.769" height="387.125"/>
            </clipPath>
        </defs>
        <g transform="translate(206.0 141.0) rotate(0.0 558.5 443.0) scale(2.2806670083243326 2.288666451404585)">
            <g clip-path="url(#clip-path-id-viewbox-item-4)" transform="translate(-0.0 -0.0)">
                
<g>
	<g>
		<path style="fill:#FECE2F;" d="M401.031,214.657c0,0,3.957-7.032,4.408-11.882c0.451-4.85,4.151-4.171,4.433-0.466    c0.283,3.706-0.791,8.727-0.791,8.727"/>
		<path style="fill:#1A1A1A;" d="M401.029,215.657c-0.166,0-0.334-0.042-0.489-0.128c-0.481-0.271-0.652-0.88-0.381-1.362    c0.038-0.068,3.857-6.906,4.283-11.484c0.299-3.208,1.864-4.349,3.237-4.349c0.007,0,0.014,0,0.021,0    c1.428,0.012,2.975,1.355,3.169,3.9c0.29,3.806-0.765,8.802-0.811,9.013c-0.114,0.54-0.647,0.879-1.187,0.769    c-0.54-0.115-0.884-0.647-0.769-1.187c0.01-0.049,1.039-4.928,0.771-8.442c-0.106-1.394-0.773-2.049-1.191-2.052    c-0.001,0-0.002,0-0.003,0c-0.407,0-1.073,0.673-1.246,2.535c-0.466,5.004-4.367,11.985-4.533,12.279    C401.718,215.473,401.379,215.657,401.029,215.657z"/>
	</g>
	<g>
		<path style="fill:#FECE2F;" d="M444.735,206.722c-8.611-0.009-20.444,5.47-20.444,5.47s4.221-6.518,15.797-11.777    c4.584-2.082,2.905-5.535-2.051-3.947c-7.722,2.474-16.66,10.271-17.698,11.678c0,0,4.915-9.023,12.295-15.023    c3.015-2.451,1.679-6.366-3.062-2.738c-11.278,8.631-22.074,21.541-47.723,38.101c-0.603,0.389-1.398,0.888-2.351,1.474    l17.555,16.847c3.695-4.246,5.738-6.778,5.776-6.806c6.189-6.282,18.944-19.647,38.107-18.651c4.972,0.702,5.742-2.825,2.04-3.888    c-7.174-2.059-15.158-0.426-15.158-0.426s4.208-4.64,17.179-5.789C449.449,210.853,449.431,206.727,444.735,206.722z"/>
		<path style="fill:#1A1A1A;" d="M397.053,247.808c-0.258,0-0.506-0.1-0.692-0.278l-17.555-16.847    c-0.224-0.214-0.335-0.521-0.302-0.828s0.206-0.583,0.47-0.745c0.946-0.582,1.733-1.077,2.333-1.463    c17.217-11.116,27.733-20.597,36.184-28.216c4.166-3.756,7.765-7,11.475-9.838c3.713-2.843,5.357-1.344,5.773-0.818    c1.059,1.342,0.412,3.593-1.473,5.125c-3.237,2.632-6.005,5.884-8.068,8.662c3.572-2.695,8.267-5.677,12.535-7.044    c3.313-1.063,5.346-0.11,5.891,1.302c0.468,1.213-0.069,3.121-3.122,4.507c-6.17,2.803-10.212,5.988-12.595,8.279    c4.27-1.64,11.147-3.883,16.809-3.883c0.007,0,0.014,0,0.021,0c3.057,0.003,4.492,1.537,4.559,3.055    c0.064,1.484-1.225,3.202-4.21,3.467c-6.407,0.567-10.61,2.012-13.174,3.274c3.041-0.214,7.291-0.18,11.342,0.983    c2.443,0.701,3.263,2.304,2.99,3.582c-0.288,1.356-1.891,2.758-5.447,2.257c-18.261-0.934-30.841,11.846-36.89,17.992l-0.35,0.355    c-0.041,0.049-0.135,0.162-0.279,0.336c-0.709,0.857-2.593,3.133-5.471,6.44c-0.18,0.207-0.436,0.331-0.709,0.343    C397.083,247.807,397.067,247.808,397.053,247.808z M381.12,230.132l15.866,15.227c2.475-2.859,4.104-4.828,4.75-5.609    c0.271-0.327,0.355-0.429,0.417-0.487l0.327-0.332c6.253-6.355,19.278-19.582,38.507-18.579c2.313,0.322,3.225-0.337,3.3-0.685    c0.063-0.299-0.396-0.901-1.586-1.243c-6.86-1.97-14.604-0.423-14.683-0.408c-0.422,0.089-0.855-0.109-1.069-0.484    s-0.162-0.847,0.128-1.167c0.183-0.201,4.623-4.943,17.832-6.113c1.682-0.149,2.408-0.901,2.388-1.387    c-0.024-0.553-0.931-1.141-2.563-1.143l0,0c-0.006,0-0.014,0-0.02,0c-8.294,0-19.888,5.324-20.004,5.377    c-0.401,0.187-0.883,0.086-1.175-0.252c-0.292-0.336-0.326-0.825-0.084-1.199c0.179-0.276,4.515-6.825,16.222-12.144    c1.709-0.776,2.2-1.663,2.083-1.966c-0.145-0.376-1.294-0.795-3.415-0.118c-7.547,2.418-16.283,10.081-17.198,11.319    c-0.313,0.422-0.899,0.532-1.342,0.249c-0.443-0.283-0.593-0.86-0.341-1.322c0.204-0.375,5.095-9.266,12.543-15.32    c1.185-0.963,1.391-2.048,1.164-2.334c-0.146-0.187-1.127-0.257-2.988,1.167c-3.646,2.791-7.216,6.009-11.35,9.736    c-8.504,7.667-19.087,17.208-36.439,28.411C382.032,229.558,381.606,229.828,381.12,230.132z"/>
	</g>
	<g>
		<path style="fill:#FECE2F;" d="M486.051,292.067c-7.892-4.096-8.256-11.581-13.921-15.919c0,0,5.247,1.529,9.456,1.892    c3.462,0.298,4.89-3.141-0.289-4.396c-9.124-2.211-11.672-5.15-26.001-10.41c-10.991-4.035-27.774-0.95-27.774-0.95    s-2.781,0.511-4.339,0.846c-6.53,1.404-12.945,2.632-19.249,3.523l4.681,26.146c6.276-3.037,12.623-6.557,19.03-10.605    l-0.001,0.061c0,0,0.655-0.461,1.678-1.143c0.82-0.529,1.638-1.041,2.46-1.587c0.029-0.019,0.056-0.039,0.084-0.058    c2.666-1.672,6.046-3.616,8.468-4.391c6.366-2.036,10.834,11.034,13.695,18.504c2.86,7.47,6.951,3.803,6.663,0.519    c-0.288-3.284-0.393-2.469-2.159-10.034c7.143,5.992,14.221,10.874,24.248,13.098    C489.035,298.547,490.831,294.394,486.051,292.067z"/>
		<path style="fill:#1A1A1A;" d="M457.948,298.955c-1.325,0-3.261-0.859-4.854-5.02l-0.561-1.476    c-2.556-6.751-6.833-18.052-11.896-16.433c-1.877,0.601-4.727,2.083-8.241,4.286c-0.614,0.411-1.165,0.763-1.716,1.114    l-0.817,0.524c-0.994,0.663-1.639,1.117-1.645,1.121c-0.104,0.073-0.218,0.124-0.336,0.153    c-6.205,3.906-12.539,7.429-18.833,10.474c-0.283,0.136-0.612,0.131-0.89-0.009c-0.279-0.143-0.476-0.407-0.53-0.715    l-4.681-26.146c-0.048-0.268,0.015-0.542,0.175-0.763c0.159-0.22,0.4-0.366,0.67-0.404c5.67-0.801,11.764-1.917,19.178-3.51    c1.556-0.334,4.254-0.831,4.368-0.852c0.696-0.128,17.18-3.087,28.3,0.994c6.587,2.418,10.748,4.372,14.092,5.941    c4.03,1.892,6.942,3.259,11.8,4.436c3.387,0.82,4.355,2.572,4.133,3.937c-0.26,1.591-2.003,2.617-4.165,2.427    c-2.024-0.174-4.255-0.604-6.063-1.014c1.133,1.405,2.04,2.928,2.93,4.421c1.912,3.208,3.89,6.525,8.135,8.732    c3.041,1.485,3.579,3.564,3.115,4.895c-0.543,1.555-2.717,3.03-7.054,2.067c-8.931-1.98-15.58-5.984-22.367-11.415    c0.273,1.114,0.486,1.941,0.655,2.599c0.521,2.028,0.646,2.51,0.836,4.69c0.197,2.25-1.166,4.433-3.039,4.865    C458.443,298.922,458.207,298.955,457.948,298.955z M441.674,273.856c5.956,0,9.986,10.648,12.73,17.896l0.558,1.469    c1.156,3.016,2.427,3.896,3.237,3.706c0.875-0.202,1.602-1.534,1.496-2.742c-0.177-2.016-0.269-2.375-0.78-4.367    c-0.293-1.138-0.716-2.784-1.356-5.528c-0.098-0.419,0.083-0.854,0.45-1.08c0.366-0.225,0.837-0.19,1.166,0.086    c7.397,6.206,14.279,10.772,23.822,12.888c3.017,0.667,4.503-0.12,4.731-0.774c0.203-0.583-0.372-1.595-2.114-2.444    c-0.008-0.003-0.016-0.007-0.023-0.011c-4.758-2.469-6.885-6.038-8.941-9.488c-1.465-2.458-2.85-4.78-5.128-6.525    c-0.382-0.292-0.501-0.816-0.284-1.246c0.218-0.429,0.711-0.643,1.172-0.508c0.052,0.015,5.204,1.505,9.263,1.855    c1.218,0.106,1.956-0.372,2.02-0.757c0.063-0.385-0.596-1.178-2.63-1.671c-5.055-1.225-8.198-2.7-12.179-4.569    c-3.309-1.553-7.427-3.486-13.932-5.874c-10.612-3.896-27.084-0.935-27.249-0.905c-0.003,0-2.762,0.507-4.31,0.84    c-7.017,1.509-12.863,2.592-18.291,3.388l4.265,23.824c5.935-2.926,11.898-6.277,17.744-9.971    c0.078-0.049,0.161-0.087,0.247-0.113c0.289-0.2,0.78-0.537,1.41-0.957l0.838-0.537c0.54-0.345,1.08-0.69,1.622-1.05    c0.008-0.005,0.1-0.068,0.107-0.073c3.706-2.324,6.632-3.836,8.694-4.497C440.593,273.941,441.141,273.856,441.674,273.856z"/>
	</g>
	<g>
		<path style="fill:#FFFFFF;" d="M419.009,264.002c-50.185,10.234-97.551,8.065-135.587-83.052l-67.874,60.168    c21.378,35.066,107.967,105.135,210.002,42.358C416.668,280.436,418.021,268.835,419.009,264.002z"/>
		<path style="fill:#1A1A1A;" d="M342.349,309.718c-11.28,0-22.581-1.356-33.889-4.074c-50.737-12.195-83.52-47.2-93.765-64.005    c-0.252-0.413-0.172-0.948,0.19-1.269l67.874-60.168c0.241-0.213,0.569-0.299,0.887-0.226c0.314,0.072,0.575,0.292,0.699,0.589    c39.006,93.439,87.813,91.97,134.464,82.458c0.331-0.064,0.67,0.036,0.907,0.273c0.237,0.238,0.34,0.579,0.272,0.908    c-0.938,4.583-2.243,15.545,5.885,18.326c0.366,0.125,0.628,0.451,0.671,0.835s-0.141,0.76-0.47,0.962    C398.604,301.228,370.557,309.718,342.349,309.718z M216.843,241.307c10.57,16.818,42.692,50.52,92.085,62.392    c38.492,9.252,76.992,2.496,114.464-20.08c-6.898-3.757-6.493-13.096-5.633-18.345c-22.119,4.413-47.737,7.192-71.521-3.886    c-25.067-11.677-45.748-37.448-63.197-78.765L216.843,241.307z"/>
	</g>
	<g>
		<path style="fill:#FFFFFF;" d="M173.435,354.388c55.507,21.231,106.744,32.515,136.929,31.695    c2.344-110.805-17.39-283.544-106.555-266.363c-92.811,37.376-92.049,189.419-92.63,206.969    C129.653,336.247,150.72,345.7,173.435,354.388z"/>
	</g>
	<g>
		<path style="fill:#FECE2F;" d="M135.935,192.519c-13.021,51.702,3.447,71.234-11.106,94.979    c-3.042,4.964-2.506,16.979,1.532,27.191c4.34,10.979,13.021,18.638,30.383,32.681c-27.574-12-45.566-20.681-45.566-20.681    S111.041,246.519,135.935,192.519z"/>
	</g>
	<g>
		<path style="fill:#FECE2F;" d="M207.552,130.348c-16.851-1.532-39.83,13.021-61.532,41.872c2.528-5.055,5.829-10.14,9.499-14.963    c11.528-15.154,26.687-27.728,32.884-28.696C196.573,127.285,207.552,130.348,207.552,130.348z"/>
	</g>
	<g>
		<path style="fill:#FECE2F;" d="M150.167,204.025c-1.599,0-3.211-0.149-4.819-0.451c-4.446-0.835-8.583-2.813-11.964-5.72    c-0.418-0.36-0.466-0.992-0.105-1.41c0.36-0.419,0.991-0.465,1.41-0.106c3.113,2.678,6.927,4.5,11.028,5.271    c6.031,1.133,12.119-0.062,17.147-3.362c5.018-3.292,8.378-8.289,9.464-14.068c2.128-11.329-5.289-22.55-16.888-25.545    c-0.535-0.138-0.856-0.684-0.718-1.218c0.138-0.535,0.683-0.856,1.218-0.718c12.613,3.257,20.675,15.491,18.353,27.851    c-1.187,6.319-4.855,11.777-10.332,15.371C159.841,202.622,155.069,204.025,150.167,204.025z"/>
	</g>
	<g>
		<path style="fill:#FECE2F;" d="M198.361,121.923c12.184-7.22,22.395-2.321,49.26,20.51c0.416-6.957-0.628-13.018-5.099-17.24    C238.05,120.97,218.891,107.563,198.361,121.923z"/>
	</g>
	<g>
		<path style="fill:#FECE2F;" d="M192.075,362.223c-0.025,0-0.052-0.001-0.077-0.003c-0.551-0.042-0.963-0.523-0.921-1.074    c0.52-6.769-1.627-13.335-6.046-18.489c-4.419-5.154-10.58-8.279-17.349-8.799c-8.471-0.651-16.66,2.947-21.924,9.624    c-0.341,0.434-0.969,0.509-1.404,0.166c-0.434-0.342-0.508-0.971-0.166-1.404c5.677-7.201,14.527-11.08,23.646-10.379    c7.302,0.561,13.948,3.932,18.715,9.491s7.082,12.642,6.521,19.944C193.031,361.824,192.593,362.223,192.075,362.223z"/>
	</g>
	<g>
		<path style="fill:#1A1A1A;" d="M292.573,206.306c9.957,23.745,18,47.106,23.362,57.447c8.109,15.64,18.766,22.213,31.787,30.255    c13.021,8.043,29.106-3.83,60.893-1.21c-37.148,14.614-65.106,20.359-101.489,12.316    C306.361,287.114,299.084,223.923,292.573,206.306z"/>
	</g>
	<g>
		<path style="fill:#1A1A1A;" d="M307.248,387.124c-31.568,0-82.484-12.033-134.171-31.802l0,0    c-22.224-8.5-43.204-17.835-62.359-27.746c-0.342-0.177-0.553-0.536-0.539-0.921c0.024-0.758,0.047-1.768,0.075-3.01    c2.439-108.886,35.531-181.638,93.181-204.854c0.06-0.024,0.122-0.042,0.185-0.054c21.961-4.23,41.1,2.708,56.897,20.618    c13.663,15.49,24.876,39.241,33.327,70.592c17.78,65.96,18.175,145.165,17.52,176.157c-0.012,0.533-0.439,0.964-0.973,0.979    C309.366,387.111,308.317,387.124,307.248,387.124z M173.792,353.454c52.667,20.144,104.479,32.21,135.591,31.651    c0.625-31.551,0.063-109.593-17.471-174.637c-8.37-31.051-19.438-54.532-32.896-69.789    c-15.275-17.318-33.751-24.046-54.924-19.996c-76.646,30.942-90.438,140.461-91.84,203.007c-0.021,0.932-0.038,1.734-0.057,2.398    C131.134,335.858,151.854,345.063,173.792,353.454L173.792,353.454z"/>
	</g>
	<g>
		<path style="fill:#FFFFFF;" d="M138.456,210.74c-0.025,25.34,10.64,62.325,28.662,91.52c8.698,14.089,19.109,26.365,30.859,34.641    c77.385,54.508,192.128-80.681,204.851-96.9c0.746-0.757,1.59-1.619,2.527-2.545c-3.497-8.887-10.414-12.649-15.647-14.246    c-2.46,1.716-5.067,3.473-7.86,5.276c-10.398,6.713-75.552,44.799-103.482,41.665c-17.522-1.966-26.644-25.318-36.346-59.251"/>
	</g>
	<g>
		<path style="fill:#FECE2F;" d="M259.892,346.582c-13.504,0-24.489-10.986-24.489-24.489s10.985-24.489,24.489-24.489    s24.489,10.986,24.489,24.489S273.396,346.582,259.892,346.582z M259.892,299.604c-12.4,0-22.489,10.089-22.489,22.489    s10.089,22.489,22.489,22.489s22.489-10.089,22.489-22.489S272.293,299.604,259.892,299.604z"/>
	</g>
	<g>
		<path style="fill:#FECE2F;" d="M238.536,183.893c-1.745,0-3.542-0.227-5.36-0.686c-5.88-1.485-11.294-5.231-15.243-10.548    c-3.95-5.316-5.974-11.581-5.697-17.64c0.279-6.135,2.875-11.328,7.309-14.622c4.435-3.294,10.153-4.28,16.11-2.776    c5.88,1.485,11.294,5.231,15.243,10.548c3.95,5.316,5.974,11.582,5.697,17.64c-0.279,6.135-2.875,11.328-7.309,14.622    C246.206,182.719,242.505,183.893,238.536,183.893z M230.304,138.937c-3.547,0-6.839,1.04-9.566,3.066    c-3.943,2.929-6.253,7.584-6.504,13.107c-0.255,5.6,1.629,11.409,5.305,16.356s8.692,8.429,14.128,9.801    c5.359,1.354,10.484,0.486,14.427-2.442c3.943-2.929,6.253-7.584,6.504-13.107c0.255-5.6-1.629-11.409-5.305-16.357    c-3.676-4.948-8.692-8.428-14.128-9.801C233.513,139.143,231.883,138.937,230.304,138.937z"/>
	</g>
	<g>
		<path style="fill:#1A1A1A;" d="M485.33,292.874c-0.073,0-0.147-0.008-0.222-0.025c-8.482-1.92-17.506-8.738-17.886-9.028    c-0.439-0.334-0.524-0.961-0.19-1.401c0.335-0.44,0.962-0.526,1.401-0.19c0.09,0.068,9.063,6.846,17.116,8.669    c0.539,0.122,0.877,0.657,0.755,1.196C486.199,292.559,485.787,292.874,485.33,292.874z"/>
	</g>
	<g>
		<path style="fill:#FECE2F;" d="M470.226,279.676c0,0,5.297,2.676,8.847,5.889"/>
		<path style="fill:#1A1A1A;" d="M479.073,286.565c-0.239,0-0.479-0.085-0.671-0.259c-3.405-3.083-8.575-5.712-8.627-5.738    c-0.493-0.249-0.69-0.851-0.441-1.344c0.249-0.492,0.853-0.69,1.344-0.441c0.221,0.112,5.458,2.774,9.066,6.041    c0.41,0.371,0.441,1.003,0.07,1.413C479.617,286.454,479.346,286.565,479.073,286.565z"/>
	</g>
	<g>
		<path style="fill:#FECE2F;" d="M336.423,307.265c-0.248,0-0.495-0.091-0.689-0.275c-4.768-4.533-7.394-10.652-7.394-17.23    c0-13.108,10.664-23.772,23.771-23.772c7.468,0,14.355,3.407,18.896,9.346c0.335,0.439,0.251,1.066-0.188,1.402    c-0.439,0.335-1.066,0.252-1.401-0.187c-4.16-5.441-10.468-8.561-17.308-8.561c-12.005,0-21.771,9.767-21.771,21.772    c0,6.024,2.405,11.628,6.772,15.781c0.399,0.38,0.416,1.013,0.035,1.414C336.951,307.161,336.687,307.265,336.423,307.265z"/>
	</g>
	<g>
		<path style="fill:#FECE2F;" d="M255.807,252.646c3.773,35.673,10.479,29.066,19.708,24.329c7.641-3.921,7.298,3.464,13.854,3.541    c4.624,0.054,8.898-5.691,13.026-7.925s6.674,3.017,16.075-4.589c4.187-3.388,10.961-5.299,14.515-5.675    c3.555-0.376,8.414-3.781,12.126-7.027c6.345-5.549,39.904-28.098,39.904-28.098s-47.655,27.634-69.515,34.568    C302.691,265.833,271.892,281.753,255.807,252.646z"/>
	</g>
	<g>
		<path style="fill:#FECE2F;" d="M164.224,298.741c-0.298,0-0.593-0.132-0.79-0.386c-0.339-0.436-0.261-1.064,0.175-1.403    c5.751-4.479,9.05-11.225,9.05-18.507c0-12.928-10.517-23.445-23.444-23.445c-1.067,0-2.141,0.072-3.192,0.215    c-0.546,0.076-1.052-0.309-1.126-0.856c-0.074-0.547,0.31-1.051,0.856-1.125c1.141-0.155,2.306-0.234,3.462-0.234    c14.03,0,25.444,11.415,25.444,25.445c0,7.903-3.58,15.223-9.821,20.085C164.654,298.673,164.438,298.741,164.224,298.741z"/>
	</g>
	<g>
		<path style="fill:#1A1A1A;" d="M258.872,149.761c-3.259,0-9.159-4.701-11.807-6.96c-0.234-0.2-0.363-0.497-0.35-0.804    c0.218-5.038-1.146-10.195-4.17-15.767c-0.214-0.395-0.139-0.884,0.184-1.196c0.323-0.313,0.813-0.372,1.202-0.144    c0.478,0.281,11.749,7.006,16.305,18.851c0.728,1.894,1.514,4.54-0.063,5.655C259.817,149.648,259.377,149.761,258.872,149.761z     M248.73,141.59c4.956,4.165,9.488,6.683,10.288,6.174c0-0.001,0.398-0.579-0.649-3.304c-2.864-7.449-8.723-12.865-12.347-15.669    C247.941,133.209,248.832,137.428,248.73,141.59z"/>
	</g>
	<g>
		<path style="fill:#1A1A1A;" d="M247.02,145.818l0.11,3.451c0,0,2.423,1.326,4.073,0.412l2.437-2.905l-5.154-3.97L247.02,145.818z"/>
		<path style="fill:#1A1A1A;" d="M249.829,151.004c-1.548,0-2.966-0.743-3.179-0.858c-0.311-0.17-0.508-0.492-0.519-0.846    l-0.11-3.451c-0.006-0.162,0.028-0.323,0.1-0.469l1.466-3.012c0.132-0.271,0.378-0.467,0.671-0.536    c0.29-0.069,0.6-0.002,0.839,0.181l5.154,3.97c0.216,0.167,0.354,0.414,0.384,0.685c0.029,0.271-0.053,0.542-0.228,0.75    l-2.437,2.905c-0.079,0.094-0.175,0.173-0.282,0.232C251.095,150.884,250.451,151.004,249.829,151.004z M248.11,148.618    c0.677,0.268,1.735,0.554,2.465,0.256l1.629-1.943l-3.355-2.585l-0.82,1.687L248.11,148.618z"/>
	</g>
	<g>
		<path style="fill:#1A1A1A;" d="M284.387,206.497c0,0-16.393-2.598-22.482-24.605c-5.388-19.476-9.271-30.709-13.269-36.97    c13.553,8.515,18.918,21.023,22.627,30.603C274.972,185.108,275.637,198.968,284.387,206.497z"/>
	</g>
	<g>
		<path style="fill:#1A1A1A;" d="M258.898,194.806c0,0-14.256-0.038-11.868-22.746c1.475-14.02,3.595-20.816,1.615-27.976    c8.227,10.583,7.956,19.474,7.82,27.089C256.279,181.447,256.471,185.389,258.898,194.806z"/>
	</g>
	<g>
		<path style="fill:#1A1A1A;" d="M415.193,290.368c-0.137,0-0.276-0.029-0.409-0.089c-10.647-4.794-7.462-17.98-7.429-18.113    c0.135-0.535,0.672-0.861,1.213-0.725c0.535,0.134,0.86,0.677,0.727,1.212c-0.118,0.476-2.802,11.699,6.31,15.802    c0.504,0.227,0.729,0.819,0.502,1.322C415.939,290.149,415.575,290.368,415.193,290.368z"/>
	</g>
	<g>
		<path style="fill:#1A1A1A;" d="M397.496,246.336c-0.398,0-0.775-0.24-0.931-0.634c-2.931-7.438-11.068-12.15-11.15-12.197    c-0.479-0.274-0.646-0.885-0.372-1.364c0.273-0.479,0.882-0.646,1.364-0.373c0.358,0.205,8.833,5.114,12.02,13.201    c0.202,0.514-0.05,1.095-0.564,1.297C397.742,246.314,397.618,246.336,397.496,246.336z"/>
	</g>
	<g>
		
			<ellipse transform="matrix(0.9921 -0.1252 0.1252 0.9921 -25.3609 36.4623)" style="fill:#FECE2F;" cx="277.363" cy="219.967" rx="3.098" ry="5.544"/>
		<path style="fill:#1A1A1A;" d="M277.841,226.481c-2.149,0-4.107-2.543-4.544-6c-0.459-3.641,0.968-6.718,3.247-7.006    c2.293-0.282,4.426,2.339,4.885,5.979c0.207,1.636,0.038,3.234-0.474,4.502c-0.592,1.463-1.576,2.352-2.772,2.503    C278.068,226.474,277.954,226.481,277.841,226.481z M276.891,215.453c-0.033,0-0.065,0.002-0.098,0.006    c-0.982,0.124-1.838,2.191-1.513,4.771c0.326,2.581,1.668,4.36,2.651,4.245c0.438-0.055,0.864-0.518,1.168-1.268    c0.381-0.942,0.506-2.219,0.344-3.502c0,0,0,0,0,0C279.13,217.209,277.863,215.453,276.891,215.453z"/>
	</g>
	<g>
		
			<ellipse transform="matrix(0.9973 -0.0728 0.0728 0.9973 -17.6767 21.2423)" style="fill:#FECE2F;" cx="282.469" cy="253.031" rx="3.098" ry="5.544"/>
		<path style="fill:#1A1A1A;" d="M282.738,259.565c-1.125,0-2.186-0.673-3.003-1.915c-0.753-1.142-1.233-2.676-1.353-4.321    c-0.268-3.66,1.318-6.657,3.609-6.825c2.32-0.181,4.297,2.569,4.564,6.228c0,0,0,0,0,0c0.268,3.66-1.319,6.658-3.611,6.825    C282.877,259.563,282.807,259.565,282.738,259.565z M282.194,248.497c-0.019,0-0.037,0.001-0.057,0.002    c-0.986,0.072-1.949,2.09-1.761,4.684c0.095,1.291,0.469,2.517,1.028,3.366c0.445,0.677,0.97,1.053,1.395,1.013    c0.988-0.072,1.951-2.09,1.763-4.684l0,0C284.376,250.334,283.172,248.497,282.194,248.497z"/>
	</g>
	<g>
		
			<ellipse transform="matrix(0.9973 -0.0728 0.0728 0.9973 -25.0875 22.2386)" style="fill:#FECE2F;" cx="292.427" cy="355.159" rx="3.098" ry="5.544"/>
		<path style="fill:#1A1A1A;" d="M292.704,361.693c-2.207,0-4.104-2.682-4.364-6.235c-0.268-3.661,1.319-6.658,3.611-6.826    c1.172-0.084,2.343,0.589,3.21,1.908c0.753,1.142,1.233,2.676,1.353,4.321c0.268,3.66-1.318,6.657-3.609,6.825    C292.837,361.69,292.77,361.693,292.704,361.693z M292.15,350.625c-0.019,0-0.036,0-0.054,0.002    c-0.988,0.072-1.951,2.091-1.763,4.685c0.19,2.593,1.398,4.437,2.424,4.378c0.987-0.072,1.95-2.09,1.762-4.684    c-0.095-1.291-0.469-2.517-1.028-3.366C293.064,350.991,292.578,350.625,292.15,350.625z"/>
	</g>
	<g>
		<path style="fill:#1A1A1A;" d="M335.865,305.589c0,0-22.178,14.721-40.774,16.823c-18.596,2.103-13.616,9.054-20.901,11.936    s-21.247,1.665-32.32-3.024s-25.265-3.323-28.574,0.216c-3.308,3.539-3.456,11.633,8.809,15.702    c12.265,4.069,33.864,2.427,59.362-7.66C306.965,329.496,324.061,315.215,335.865,305.589z"/>
	</g>
	<g>
		<path style="fill:#1A1A1A;" d="M239.503,350.183c-11.788,0-22.867-2.424-33.144-7.271c-15.195-7.166-28.86-20.418-40.616-39.39    c-8.518-13.746-15.72-30.167-20.828-47.487c-1.542-5.228-2.876-10.49-3.968-15.641c-2.292-10.817-3.499-21.072-3.491-29.655    c-0.317-12.78,3.487-23.688,11.005-31.52c7.411-7.721,18.056-12.078,29.973-12.269c0.005,0,0.011,0,0.016,0    c0.545,0,0.991,0.437,1,0.984c0.009,0.552-0.432,1.007-0.984,1.016c-11.379,0.183-21.522,4.321-28.561,11.654    c-7.14,7.438-10.753,17.85-10.448,30.111c-0.008,8.471,1.185,18.582,3.448,29.265c1.08,5.101,2.402,10.312,3.929,15.49    c5.059,17.151,12.186,33.403,20.609,46.999c11.55,18.638,24.93,31.636,39.771,38.635c34.161,16.108,76.313,5.05,125.288-32.87    c34.924-27.041,61.8-59.217,69.204-68.435c0.299-0.372,0.385-0.479,0.452-0.541l0.288-0.292c0.532-0.541,1.11-1.128,1.733-1.75    c-3.32-7.839-9.487-11.342-14.302-12.905c-2.5,1.737-4.953,3.38-7.486,5.015c-0.679,0.438-67.787,42.008-100.489,42.012    c-1.271,0-2.485-0.063-3.646-0.193c-19.942-2.237-30.215-28.856-38.346-57.289c-0.151-0.531,0.156-1.084,0.687-1.236    c0.537-0.153,1.085,0.156,1.237,0.687c10.856,37.968,21.474,54.149,36.645,55.851c27.112,3.042,91.313-34.078,102.829-41.512    c2.648-1.709,5.21-3.429,7.83-5.256c0.252-0.175,0.57-0.226,0.864-0.136c5.416,1.653,12.639,5.568,16.286,14.836    c0.146,0.373,0.057,0.796-0.228,1.078c-0.799,0.789-1.529,1.531-2.189,2.201l-0.309,0.313c-0.045,0.054-0.145,0.179-0.297,0.369    c-7.439,9.261-34.442,41.589-69.539,68.764c-21.807,16.884-42.7,28.634-62.103,34.924    C260.427,348.369,249.699,350.183,239.503,350.183z"/>
	</g>
	<g>
		<path style="fill:#1A1A1A;" d="M239.531,211.859c0,0-1.928-10.582,0.957-11.681c4.021-1.532,12.447,2.298,10.149,17.617    c-2.298,15.319,0.191,13.277,2.745,31.66C244.956,236.178,242.084,222.327,239.531,211.859z"/>
	</g>
	<g>
		<path style="fill:#FECE2F;" d="M221.084,272.54c-13.504,0-24.489-10.986-24.489-24.489s10.985-24.489,24.489-24.489    s24.489,10.986,24.489,24.489S234.588,272.54,221.084,272.54z M221.084,225.561c-12.4,0-22.489,10.089-22.489,22.489    s10.089,22.489,22.489,22.489s22.489-10.089,22.489-22.489S233.484,225.561,221.084,225.561z"/>
	</g>
	<g>
		<path style="fill:#FFFFFF;" d="M211.7,179.055c-5.628-4.251-11.83-7.274-18.173-9.083"/>
		<path style="fill:#1A1A1A;" d="M211.699,180.054c-0.21,0-0.422-0.066-0.602-0.202c-5.404-4.083-11.407-7.083-17.844-8.919    c-0.531-0.151-0.839-0.705-0.688-1.236c0.152-0.532,0.709-0.838,1.236-0.687c6.675,1.904,12.898,5.015,18.5,9.247    c0.44,0.333,0.528,0.96,0.195,1.401C212.302,179.917,212.002,180.054,211.699,180.054z"/>
	</g>
	<g>
		
			<ellipse transform="matrix(0.3277 -0.9448 0.9448 0.3277 135.746 319.7018)" style="fill:#FFFFFF;" cx="292.507" cy="64.471" rx="14.23" ry="6.912"/>
		<path style="fill:#1A1A1A;" d="M289.007,79.109c-0.512,0-1.011-0.083-1.491-0.249c-2.125-0.737-3.517-2.998-3.917-6.366    c-0.37-3.114,0.139-6.884,1.434-10.615c2.797-8.068,8.273-13.253,12.465-11.797c4.192,1.454,5.283,8.913,2.484,16.981l0,0    c-1.294,3.731-3.229,7.007-5.447,9.223C292.676,78.142,290.763,79.109,289.007,79.109z M296.017,51.838    c-2.741,0-6.751,3.935-9.097,10.696c-1.196,3.451-1.671,6.904-1.336,9.724c0.301,2.529,1.243,4.246,2.586,4.712    c1.346,0.463,3.147-0.299,4.949-2.099c2.01-2.007,3.775-5.012,4.973-8.463l0,0c2.593-7.477,1.446-13.501-1.251-14.437    C296.584,51.882,296.307,51.838,296.017,51.838z"/>
	</g>
	<g>
		<path style="fill:#FECE2F;" d="M203.212,118.987c0,0,23.681-14.362,30.766-45.957c5.152-22.975,23.211,9.454,23.211,9.454    l-16.068,48.013C228.069,123.528,217.254,115.923,203.212,118.987z"/>
	</g>
	<g>
		<path style="fill:#1A1A1A;" d="M242.275,128.413c-0.104,0-0.211-0.017-0.315-0.051c-0.523-0.174-0.808-0.74-0.634-1.264    l14.768-44.488c-3.017-4.855-11.183-15.99-16.679-15.146c-2.315,0.358-4.075,2.954-5.231,7.717    c-8.058,33.188-37.368,48.628-37.663,48.78c-0.491,0.252-1.094,0.061-1.347-0.43s-0.061-1.094,0.431-1.347    c0.287-0.148,28.799-15.197,36.636-47.475c1.365-5.626,3.677-8.729,6.87-9.222c7.958-1.228,17.834,14.663,18.935,16.478    c0.151,0.25,0.186,0.555,0.094,0.833l-14.914,44.93C243.085,128.147,242.694,128.413,242.275,128.413z"/>
	</g>
	<g>
		<path style="fill:#FECE2F;" d="M247.861,88.923c1.436,1.628,4.979,6.032,15.351,7.851c11.401,2,14.79-15.279,19.563-18.654    c4.571-0.497,7.468-3.634,5.246-8.15c-4.192-8.518-0.794-11.104,1.191-17.327c7.621-23.9-36.677-48.677-56.599-17.133    l-4.188,31.966"/>
		<path style="fill:#1A1A1A;" d="M265.057,97.94c-0.646,0-1.316-0.058-2.018-0.181c-10.362-1.817-14.155-6.149-15.775-8    l-0.153-0.175c-0.365-0.414-0.326-1.046,0.088-1.412c0.415-0.364,1.045-0.326,1.412,0.088l0.158,0.181    c1.481,1.691,4.948,5.652,14.616,7.347c6.977,1.225,10.685-5.566,13.957-11.558c1.668-3.055,3.109-5.693,4.856-6.928    c0.139-0.098,0.3-0.159,0.469-0.178c2.238-0.243,3.949-1.162,4.696-2.521c0.63-1.146,0.547-2.595-0.24-4.193    c-3.444-7-1.984-10.42-0.294-14.38c0.488-1.145,0.994-2.328,1.429-3.693c3.656-11.465-5.299-22.527-16.034-27.529    c-11.247-5.24-28.09-5.469-38.648,11.049l-4.159,31.746c-0.071,0.547-0.573,0.925-1.121,0.862    c-0.548-0.072-0.934-0.574-0.861-1.122l4.188-31.966c0.019-0.144,0.068-0.282,0.146-0.404    c11.244-17.805,29.276-17.582,41.302-11.979c11.528,5.371,21.103,17.383,17.096,29.949c-0.465,1.456-0.988,2.684-1.495,3.871    c-1.62,3.794-2.79,6.536,0.249,12.711c1.374,2.791,0.866,4.825,0.198,6.04c-1.031,1.875-3.191,3.146-5.953,3.512    c-1.309,1.061-2.649,3.517-4.066,6.11C275.965,90.923,272.131,97.94,265.057,97.94z"/>
	</g>
	<g>
		<path style="fill:#1A1A1A;" d="M249.775,53.976c-1.053-3.543-4.004-9.206-10.819-5.266c-4.68,2.706-3.447,9.766-1.532,14.553    c3.349,8.372,12.582,33.892-40.596,44.043c-52.92,10.102-66.672,72.977-113.106,71.298c-36.297-1.313-56.994-12.092-70.979-31.66    c-21.584-30.201-13.277-64.34,23.779-68.938c16.252-2.017,28.178-1.53,51.54-26.423c12.797-13.637,41-11.276,58.979-9.191    c26.426,3.064,29.558-5.243,52.085-21.447c21.83-15.702,39.064-22.979,64.34-18.766c46.154,7.692,43.732,35.448,26.133,40.835    c-18.248,5.586-28.216-7.538-34.143,10.053C253.11,60.03,250.637,57.327,249.775,53.976z"/>
	</g>
	<g>
		
			<ellipse transform="matrix(0.3277 -0.9448 0.9448 0.3277 124.369 300.5738)" style="fill:#FFFFFF;" cx="273.378" cy="62.901" rx="14.728" ry="7.153"/>
		<path style="fill:#1A1A1A;" d="M269.757,78.015c-0.526,0-1.039-0.084-1.532-0.255c-2.187-0.758-3.618-3.088-4.031-6.56    c-0.382-3.218,0.144-7.115,1.482-10.971c1.337-3.857,3.336-7.242,5.629-9.533c2.474-2.471,5.039-3.415,7.228-2.655    c4.319,1.499,5.438,9.199,2.549,17.531c-1.337,3.857-3.337,7.242-5.629,9.532C273.536,77.018,271.564,78.015,269.757,78.015z     M277.015,49.791c-1.267,0-2.783,0.81-4.296,2.321c-2.083,2.081-3.913,5.196-5.154,8.773c-1.24,3.577-1.732,7.156-1.385,10.08    c0.313,2.631,1.297,4.419,2.7,4.906c1.406,0.486,3.284-0.308,5.158-2.181c2.083-2.081,3.913-5.196,5.154-8.772    c2.69-7.758,1.491-14.012-1.316-14.986C277.605,49.837,277.317,49.791,277.015,49.791z"/>
	</g>
	<g>
		<path style="fill:#1A1A1A;" d="M274.898,64.566c-3.218,0-4.937-2.155-5.023-2.267c-0.339-0.436-0.26-1.064,0.177-1.403    c0.436-0.339,1.059-0.26,1.398,0.17c0.083,0.103,1.844,2.227,5.219,1.225c0.53-0.16,1.086,0.145,1.244,0.673    c0.157,0.529-0.145,1.086-0.674,1.244C276.388,64.462,275.606,64.566,274.898,64.566z"/>
	</g>
	<g>
		
			<ellipse transform="matrix(0.4225 -0.9064 0.9064 0.4225 99.4761 285.9733)" style="fill:#1A1A1A;" cx="274.149" cy="64.925" rx="2.294" ry="1.915"/>
	</g>
	<g>
		<path style="fill:#1A1A1A;" d="M272.642,89.262c-3.493,0-6.474-1.873-6.65-1.987c-0.465-0.297-0.6-0.915-0.303-1.379    s0.913-0.601,1.38-0.305c0.05,0.032,5.187,3.238,9.124,0.646c0.461-0.305,1.081-0.176,1.385,0.285    c0.304,0.461,0.177,1.082-0.285,1.385C275.771,88.909,274.158,89.262,272.642,89.262z"/>
	</g>
	<g>
		<path style="fill:#FECE2F;" d="M87.552,52.221c0,0-15.319,22.213-40.596,24.766C19.1,79.8,12.744,87.199,6.105,96.391    c16.851-13.532,26.389-11.715,44.681-15.064C68.914,78.008,82.446,68.306,87.552,52.221z"/>
	</g>
	<g>
		<path style="fill:#1A1A1A;" d="M241.637,52.827c0,0,2.872,2.298,4.213,8.043"/>
		<path style="fill:#1A1A1A;" d="M245.849,61.869c-0.454,0-0.865-0.312-0.973-0.773c-1.232-5.285-3.841-7.471-3.867-7.492    c-0.426-0.349-0.492-0.977-0.146-1.405c0.348-0.429,0.971-0.496,1.4-0.153c0.128,0.103,3.158,2.583,4.561,8.596    c0.126,0.538-0.209,1.076-0.746,1.201C246,61.861,245.924,61.869,245.849,61.869z"/>
	</g>
	<g>
		<path style="fill:#1A1A1A;" d="M240.967,59.529c0,0,0.574-2.777,2.585-3.83"/>
		<path style="fill:#1A1A1A;" d="M240.968,60.528c-0.068,0-0.138-0.007-0.206-0.021c-0.54-0.113-0.886-0.64-0.774-1.18    c0.027-0.132,0.699-3.254,3.101-4.513c0.487-0.256,1.094-0.067,1.35,0.421c0.257,0.489,0.067,1.094-0.422,1.35    c-1.557,0.816-2.065,3.126-2.07,3.149C241.845,60.205,241.43,60.528,240.968,60.528z"/>
	</g>
	<g>
		<path style="fill:#FECE2F;" d="M254.047,148.636c0,0,8.71,15.735,12.363,26.412c3.453,10.093,8.57,21.073,12.223,23.321    c-3.512-8.57-5.76-19.247-8.008-24.445S262.477,153.975,254.047,148.636z"/>
	</g>
	<g>
		<path style="fill:#FECE2F;" d="M250.19,0.646c0,0-19.915-1.277-48.255,19.149s-30.128,24.766-44.681,23.489    c19.915,5.617,38.298-12.255,42.383-16.085C203.722,23.37,223.126,6.263,250.19,0.646z"/>
	</g>
	<g>
		<path style="fill:#1A1A1A;" d="M267.297,59.094c-0.107,0-0.217-0.018-0.324-0.054l-14.17-4.851    c-0.522-0.179-0.801-0.748-0.622-1.27c0.18-0.522,0.747-0.8,1.271-0.623l14.17,4.851c0.522,0.179,0.801,0.748,0.622,1.27    C268.1,58.832,267.713,59.094,267.297,59.094z"/>
	</g>
	<g>
		<path style="fill:#1A1A1A;" d="M281.466,62.412c-0.538,0-0.982-0.429-0.999-0.971c-0.016-0.552,0.419-1.013,0.971-1.029    l4.341-0.128c0.512-0.021,1.013,0.417,1.029,0.97c0.016,0.552-0.419,1.013-0.971,1.029l-4.341,0.128    C281.486,62.412,281.476,62.412,281.466,62.412z"/>
	</g>
	<g>
		<path style="fill:#1A1A1A;" d="M85.543,179.637c-0.613,0-1.231-0.011-1.856-0.034c-34.667-1.254-56.798-11.147-71.757-32.078    c-11.717-16.394-15.04-34.55-8.891-48.567C8.366,86.815,20.214,79.022,36.4,77.013c1.254-0.156,2.483-0.297,3.693-0.436    c14.486-1.66,25.928-2.971,47.239-25.68c13.913-14.824,46.087-11.092,59.824-9.5c20.794,2.408,26.794-2.289,39.94-12.586    c3.271-2.562,6.977-5.465,11.445-8.68c21.294-15.317,38.775-23.326,65.088-18.94c34.62,5.77,38.322,21.529,38.632,26.221    c0.495,7.486-4.477,14.14-12.37,16.556c-7.403,2.267-13.503,1.534-18.406,0.946c-7.578-0.909-11.754-1.411-15.083,8.47    c-1.14,3.385-2.475,5.032-4.078,5.032c-0.028,0-0.057,0-0.086-0.001c-1.484-0.054-2.765-1.613-3.428-4.172    c-0.505-1.694-1.697-4.654-4.03-5.583c-1.47-0.586-3.263-0.278-5.325,0.915c-4.97,2.874-1.791,11.597-1.103,13.316    c1.51,3.775,5.521,13.803,0.095,23.716c-5.585,10.204-19.525,17.499-41.432,21.681c-25.471,4.862-41.619,21.958-57.236,38.49    C123.831,163.664,108.742,179.637,85.543,179.637z M124.139,41.78c-13.148,0-27.478,2.103-35.347,10.487    c-21.813,23.245-34.167,24.66-48.471,26.299c-1.204,0.138-2.427,0.278-3.675,0.433C21.187,80.916,9.902,88.29,4.87,99.762    c-5.863,13.365-2.616,30.786,8.687,46.601c14.563,20.377,36.215,30.013,70.202,31.242c23.342,0.856,38.517-15.206,54.567-32.199    c15.835-16.764,32.21-34.098,58.315-39.082c21.292-4.064,34.768-11.021,40.053-20.676c4.408-8.052,2.21-15.994-0.198-22.012    c-2.302-5.755-2.996-12.925,1.959-15.791c2.622-1.516,4.999-1.864,7.066-1.042c3.124,1.244,4.606,4.85,5.213,6.888    c0.003,0.012,0.007,0.023,0.01,0.036c0.483,1.879,1.26,2.68,1.568,2.691l0,0c0.024,0,0.972-0.037,2.196-3.671    c3.848-11.419,9.745-10.712,17.216-9.817c4.716,0.566,10.582,1.27,17.582-0.873c6.988-2.139,11.393-7.971,10.961-14.513    c-0.588-8.906-10.608-19.987-36.965-24.38c-25.635-4.274-42.727,3.583-63.592,18.592c-4.436,3.19-8.125,6.08-11.38,8.63    c-13.179,10.323-19.794,15.504-41.404,12.998C141.485,42.753,133.085,41.78,124.139,41.78z"/>
	</g>
	<g>
		<path style="fill:#FFFFFF;" d="M184.573,130.093c0,0,19.019-11.102,40.521,14.89c20.78,25.119,22.526-2.551,22.526-2.551    C215.339,108.008,198.134,118.253,184.573,130.093z"/>
		<path style="fill:#1A1A1A;" d="M239.474,156.532c-4.115,0-9.099-3.596-15.15-10.911c-20.664-24.978-38.5-15.096-39.249-14.663    c-0.444,0.258-1.014,0.135-1.314-0.284c-0.3-0.418-0.233-0.996,0.155-1.334c14.045-12.263,31.765-22.429,64.435,12.409    c0.188,0.201,0.286,0.472,0.269,0.747c-0.03,0.476-0.808,11.675-7.084,13.714C240.874,156.424,240.187,156.532,239.474,156.532z     M195.034,126.806c7.837,0,19.043,3.29,30.831,17.54c6.333,7.655,11.537,11.102,15.05,9.961c3.95-1.281,5.391-8.374,5.675-11.512    c-28.183-29.903-44.119-25.469-57.176-15.407C190.997,127.053,192.89,126.806,195.034,126.806z"/>
	</g>
	<g>
		<path style="fill:#1A1A1A;" d="M250.254,90.167c0,0-2.046-3.369-4.021-2.777c-1.915,0.574-0.67,8.043,4.979,12.734l2.394-5.936    C253.605,94.189,251.69,93.231,250.254,90.167z"/>
	</g>
	<g>
		<path style="fill:#1A1A1A;" d="M284.387,207.497c-0.052,0-0.104-0.004-0.156-0.012c-0.695-0.11-17.101-2.956-23.289-25.326    c-5.585-20.189-9.395-30.821-13.148-36.698c-0.252-0.395-0.196-0.911,0.133-1.243c0.33-0.333,0.848-0.39,1.242-0.142    c13.404,8.422,18.915,20.463,23.027,31.089c1.131,2.92,1.963,6.152,2.845,9.573c2.018,7.831,4.104,15.928,9.999,21.001    c0.339,0.292,0.443,0.772,0.255,1.178C285.129,207.275,284.771,207.497,284.387,207.497z M251.601,148.188    c3.216,6.496,6.651,16.752,11.268,33.438c4.17,15.074,13.133,20.75,18.136,22.798c-4.35-5.403-6.22-12.661-7.901-19.186    c-0.866-3.363-1.686-6.539-2.773-9.351C266.716,166.549,262,156.091,251.601,148.188z"/>
	</g>
	<g>
		<path style="fill:#FECE2F;" d="M253.204,151.727c0,0-0.843,12.644-1.405,18.966c-0.546,6.148,2.81,14.892,6.182,18.966    c-1.686-7.867-2.248-12.363-1.405-19.388C257.419,163.247,255.733,155.38,253.204,151.727z"/>
	</g>
	<g>
		<path style="fill:#1A1A1A;" d="M258.897,195.806c-0.001,0-0.002,0-0.003,0c-0.197,0-4.883-0.061-8.638-4.243    c-3.732-4.157-5.152-10.754-4.221-19.608c0.42-3.998,0.892-7.4,1.308-10.402c1.023-7.392,1.7-12.275,0.337-17.203    c-0.127-0.46,0.089-0.946,0.516-1.16c0.425-0.213,0.944-0.097,1.237,0.28c8.339,10.725,8.171,19.985,8.035,27.425l-0.005,0.296    c-0.179,9.918-0.031,13.918,2.402,23.365c0.077,0.3,0.011,0.619-0.179,0.863C259.497,195.664,259.206,195.806,258.897,195.806z     M250.376,148.302c0.284,3.88-0.291,8.033-1.052,13.526c-0.413,2.987-0.883,6.372-1.3,10.336    c-0.869,8.268,0.382,14.345,3.721,18.063c2.032,2.264,4.387,3.096,5.823,3.401c-2.149-8.691-2.277-12.861-2.104-22.474    l0.006-0.296C255.589,164.266,255.723,156.899,250.376,148.302z"/>
	</g>
</g>

            </g>
        </g>
    </g>
    
    <!-- ITEM 5 -->
    <g>
        <defs>
            <clipPath id="clip-path-id-viewbox-item-5">
                <rect x="0.0" y="0.0" width="800.0" height="801.0"/>
            </clipPath>
        </defs>
        <g transform="translate(949.0 121.0) rotate(0.0 117.0 117.0) scale(0.2925 0.29213483146067415)">
            <g clip-path="url(#clip-path-id-viewbox-item-5)" transform="translate(-0.0 -0.0)">
                
<circle style="fill:#FECE2F;" cx="400" cy="400.725" r="400"/>

            </g>
        </g>
    </g>
    
    <!-- ITEM 6 -->
    <g>
        <defs>
            <clipPath id="clip-path-id-viewbox-item-6">
                <rect x="0.0" y="0.0" width="40.646" height="24.169"/>
            </clipPath>
        </defs>
        <g transform="translate(1316.0 675.0) rotate(32.08524389612952 -44.5 27.0) scale(-2.189637356689465 2.2342670362861514)">
            <g clip-path="url(#clip-path-id-viewbox-item-6)" transform="translate(-0.0 -0.0)">
                
<g>
	<g>
		<path style="fill:#1A1A1A;" d="M39.648,23.906c-0.315,0-0.626-0.148-0.82-0.427C38.706,23.306,26.426,6.115,3.735,1.984    C3.191,1.885,2.831,1.365,2.93,0.822c0.099-0.543,0.62-0.909,1.163-0.805C27.618,4.298,40.34,22.153,40.466,22.332    c0.316,0.452,0.206,1.075-0.246,1.393C40.045,23.847,39.846,23.906,39.648,23.906z"/>
	</g>
	<g>
		<path style="fill:#1A1A1A;" d="M25.968,24.169c-0.207,0-0.416-0.064-0.595-0.197c-0.103-0.076-10.437-7.584-24.232-5.622    c-0.542,0.079-1.052-0.303-1.131-0.85c-0.078-0.547,0.303-1.053,0.85-1.131c14.635-2.083,25.261,5.666,25.706,5.997    c0.443,0.329,0.535,0.955,0.206,1.398C26.575,24.03,26.273,24.169,25.968,24.169z"/>
	</g>
</g>

            </g>
        </g>
    </g>
    
    <!-- ITEM 7 -->
    <g>
        <defs>
            <clipPath id="clip-path-id-viewbox-item-7">
                <rect x="0.0" y="0.0" width="86.553" height="42.629"/>
            </clipPath>
        </defs>
        <g transform="translate(970.0 200.0) rotate(349.83093760617 99.5 49.0) scale(2.2991692951139764 2.2989045016303455)">
            <g clip-path="url(#clip-path-id-viewbox-item-7)" transform="translate(-0.0 -0.0)">
                
<g>
	<g>
		<path style="fill:#FFFFFF;" d="M78.73,1.158L7.883,1C4.107,0.992,1.038,4.047,1.03,7.823L1,21.09    c-0.008,3.777,3.047,6.845,6.823,6.854l3.83,0.009l-0.03,13.677l9.283-13.656l57.765,0.129c3.777,0.008,6.845-3.046,6.854-6.823    l0.03-13.267C85.562,4.235,82.507,1.166,78.73,1.158z"/>
		<path style="fill:#1A1A1A;" d="M11.622,42.629c-0.098,0-0.198-0.015-0.295-0.044c-0.42-0.13-0.706-0.519-0.705-0.958L10.65,28.95    l-2.829-0.006C3.499,28.934-0.009,25.41,0,21.087L0.029,7.821C0.04,3.505,3.555,0,7.868,0c0.006,0,0.011,0,0.018,0l70.847,0.158    l0,0c4.322,0.01,7.83,3.534,7.821,7.856l-0.03,13.267c-0.004,2.093-0.824,4.06-2.308,5.537c-1.479,1.473-3.443,2.284-5.53,2.284    c-0.006,0-0.012,0-0.018,0l-57.234-0.128l-8.984,13.218C12.259,42.471,11.947,42.629,11.622,42.629z M7.868,2    C4.655,2,2.037,4.61,2.029,7.826L2,21.092c-0.007,3.219,2.606,5.844,5.826,5.852l3.829,0.008c0.266,0,0.52,0.106,0.707,0.294    c0.188,0.188,0.292,0.442,0.292,0.708l-0.023,10.414l7.448-10.958c0.187-0.274,0.496-0.438,0.827-0.438c0.001,0,0.001,0,0.002,0    l57.765,0.129c1.542,0.033,3.027-0.6,4.133-1.701s1.716-2.565,1.719-4.125l0.03-13.267c0.007-3.219-2.606-5.844-5.825-5.852    L7.881,2C7.877,2,7.873,2,7.868,2z"/>
	</g>
	<g>
		<g>
			<circle style="fill:#1A1A1A;" cx="31.004" cy="14.722" r="2.647"/>
		</g>
		<g>
			<circle style="fill:#1A1A1A;" cx="43.276" cy="14.75" r="2.647"/>
		</g>
		<g>
			<circle style="fill:#1A1A1A;" cx="55.548" cy="14.777" r="2.647"/>
		</g>
	</g>
</g>

            </g>
        </g>
    </g>
    
    <!-- ITEM 8 -->
    <g>
        <defs>
            <clipPath id="clip-path-id-viewbox-item-8">
                <rect x="0.0" y="0.0" width="800.0" height="801.0"/>
            </clipPath>
        </defs>
        <g transform="translate(1232.0 195.0) rotate(0.0 85.5 85.5) scale(0.21375 0.21348314606741572)">
            <g clip-path="url(#clip-path-id-viewbox-item-8)" transform="translate(-0.0 -0.0)">
                
<circle style="fill:#FECE2F;" cx="400" cy="400.725" r="400"/>

            </g>
        </g>
    </g>
    
    <!-- ITEM 9 -->
    <g>
        <defs>
            <clipPath id="clip-path-id-viewbox-item-9">
                <rect x="0.0" y="0.0" width="51.81" height="37.589"/>
            </clipPath>
        </defs>
        <g transform="translate(1259.0 241.0) rotate(349.37104113343054 60.5 44.0) scale(2.335456475583864 2.341110431243183)">
            <g clip-path="url(#clip-path-id-viewbox-item-9)" transform="translate(-0.0 -0.0)">
                
<g>
	<g>
		<path style="fill:#FFFFFF;" d="M47.674,36.589L4.057,36.492C2.365,36.488,0.996,35.113,1,33.421L1.065,4.057    C1.069,2.365,2.444,0.996,4.136,1l43.617,0.097c1.692,0.004,3.061,1.379,3.057,3.071l-0.065,29.364    C50.741,35.224,49.366,36.593,47.674,36.589z"/>
		<path style="fill:#1A1A1A;" d="M47.682,37.589c-0.004,0-0.007,0-0.01,0L4.055,37.492C1.814,37.487-0.005,35.659,0,33.419    L0.066,4.054C0.071,1.817,1.893,0,4.129,0c0.003,0,0.006,0,0.009,0l43.617,0.097c1.085,0.002,2.104,0.427,2.871,1.196    c0.766,0.77,1.187,1.791,1.184,2.876l-0.065,29.364c-0.003,1.085-0.428,2.105-1.196,2.871    C49.781,37.169,48.764,37.589,47.682,37.589z M4.129,2C2.993,2,2.069,2.923,2.066,4.059L2,33.424    c-0.001,0.551,0.212,1.07,0.601,1.46c0.39,0.391,0.907,0.606,1.458,0.608l43.617,0.097l0,0c0.002,0,0.004,0,0.005,0    c0.55,0,1.066-0.213,1.456-0.601c0.391-0.389,0.606-0.907,0.607-1.458L49.81,4.165c0.001-0.551-0.212-1.07-0.602-1.46    c-0.389-0.391-0.906-0.606-1.457-0.607L4.134,2C4.132,2,4.13,2,4.129,2z"/>
	</g>
	<g>
		<path style="fill:#1A1A1A;" d="M25.913,20.183c-1.063,0-2.127-0.339-3.033-1.016L2.054,3.605c-0.442-0.331-0.533-0.958-0.202-1.4    c0.331-0.442,0.956-0.532,1.399-0.203l20.826,15.562c1.095,0.818,2.565,0.82,3.662,0.008L48.634,2.104    c0.443-0.328,1.069-0.235,1.398,0.208c0.329,0.444,0.235,1.07-0.209,1.399L28.929,19.18C28.027,19.849,26.97,20.183,25.913,20.183    z"/>
	</g>
	<g>
		<path style="fill:#1A1A1A;" d="M2.584,35.226c-0.307,0-0.608-0.14-0.805-0.405c-0.329-0.444-0.235-1.07,0.209-1.399l16.107-11.925    c0.443-0.329,1.069-0.234,1.398,0.208c0.329,0.444,0.235,1.07-0.209,1.399L3.178,35.03C2.999,35.162,2.791,35.226,2.584,35.226z"/>
	</g>
	<g>
		<path style="fill:#1A1A1A;" d="M49.157,35.33c-0.208,0-0.418-0.065-0.598-0.199L32.505,23.134c-0.442-0.331-0.533-0.958-0.202-1.4    s0.956-0.532,1.399-0.203l16.055,11.997c0.442,0.331,0.533,0.958,0.202,1.4C49.763,35.191,49.462,35.33,49.157,35.33z"/>
	</g>
</g>

            </g>
        </g>
    </g>
    
    <!-- ITEM 10 -->
    <g>
        <defs>
            <clipPath id="clip-path-id-viewbox-item-10">
                <rect x="0.0" y="0.0" width="800.0" height="801.0"/>
            </clipPath>
        </defs>
        <g transform="translate(1259.0 387.0) rotate(0.0 107.5 107.5) scale(0.26875 0.26841448189762795)">
            <g clip-path="url(#clip-path-id-viewbox-item-10)" transform="translate(-0.0 -0.0)">
                
<circle style="fill:#FECE2F;" cx="400" cy="400.725" r="400"/>

            </g>
        </g>
    </g>
    
    <!-- ITEM 11 -->
    <g>
        <defs>
            <clipPath id="clip-path-id-viewbox-item-11">
                <rect x="0.0" y="0.0" width="800.0" height="801.0"/>
            </clipPath>
        </defs>
        <g transform="translate(1097.0 355.0) rotate(0.0 72.5 72.5) scale(0.18125 0.18102372034956304)">
            <g clip-path="url(#clip-path-id-viewbox-item-11)" transform="translate(-0.0 -0.0)">
                
<circle style="fill:#FECE2F;" cx="400" cy="400.725" r="400"/>

            </g>
        </g>
    </g>
    
    <!-- ITEM 12 -->
    <g>
        <defs>
            <clipPath id="clip-path-id-viewbox-item-12">
                <rect x="0.0" y="0.0" width="800.0" height="801.0"/>
            </clipPath>
        </defs>
        <g transform="translate(1178.0 59.0) rotate(0.0 61.5 61.5) scale(0.15375 0.15355805243445692)">
            <g clip-path="url(#clip-path-id-viewbox-item-12)" transform="translate(-0.0 -0.0)">
                
<circle style="fill:#FECE2F;" cx="400" cy="400.725" r="400"/>

            </g>
        </g>
    </g>
    
    <!-- ITEM 13 -->
    <g>
        <defs>
            <clipPath id="clip-path-id-viewbox-item-13">
                <rect x="0.0" y="0.0" width="43.062" height="31.338"/>
            </clipPath>
        </defs>
        <g transform="translate(1119.0 392.0) rotate(349.2814848793356 50.5 36.5) scale(2.3454553899029307 2.329440296126109)">
            <g clip-path="url(#clip-path-id-viewbox-item-13)" transform="translate(-0.0 -0.0)">
                
<g>
	<g>
		<path style="fill:#FFFFFF;" d="M38.94,30.338L4.057,30.26C2.365,30.257,0.996,28.882,1,27.19L1.052,4.057    C1.055,2.365,2.43,0.996,4.122,1l34.883,0.078c1.692,0.004,3.061,1.379,3.057,3.071l-0.052,23.133    C42.007,28.973,40.632,30.342,38.94,30.338z"/>
		<path style="fill:#1A1A1A;" d="M38.946,31.338c-0.003,0-0.006,0-0.009,0L4.055,31.26c-1.085-0.002-2.104-0.427-2.871-1.196    C0.418,29.294-0.003,28.273,0,27.187L0.052,4.055C0.055,2.969,0.48,1.95,1.248,1.184C2.015,0.42,3.032,0,4.114,0    c0.004,0,0.007,0,0.01,0l34.883,0.078c2.24,0.005,4.06,1.832,4.056,4.073l-0.052,23.133    C43.006,29.521,41.184,31.338,38.946,31.338z M4.115,2C2.98,2,2.055,2.923,2.052,4.059L2,27.192    c-0.001,0.551,0.212,1.07,0.602,1.46c0.389,0.391,0.906,0.606,1.457,0.607l34.883,0.078l0,0c0.002,0,0.004,0,0.005,0    c1.137,0,2.062-0.923,2.064-2.059l0.052-23.133c0.002-1.138-0.922-2.066-2.06-2.068L4.12,2C4.118,2,4.116,2,4.115,2z"/>
	</g>
	<g>
		<path style="fill:#1A1A1A;" d="M42.053,9.534c-0.001,0-0.001,0-0.002,0L19.309,9.483c-1.698-0.004-3.229-1.079-3.81-2.675    l-1.237-3.406c-0.301-0.826-1.093-1.382-1.972-1.384c-0.553-0.001-0.999-0.45-0.998-1.002c0.001-0.551,0.449-0.998,1-0.998    c0.001,0,0.002,0,0.002,0c1.716,0.004,3.262,1.089,3.848,2.702l1.236,3.405c0.295,0.811,1.072,1.356,1.935,1.358l22.742,0.051    c0.553,0.001,0.999,0.45,0.998,1.002C43.052,9.088,42.604,9.534,42.053,9.534z"/>
	</g>
</g>

            </g>
        </g>
    </g>
    
    <!-- ITEM 14 -->
    <g>
        <defs>
            <clipPath id="clip-path-id-viewbox-item-14">
                <rect x="0.0" y="0.0" width="52.68" height="70.189"/>
            </clipPath>
        </defs>
        <g transform="translate(1308.0 413.0) rotate(349.6134900451007 60.5 81.0) scale(2.296886864085042 2.308053968570574)">
            <g clip-path="url(#clip-path-id-viewbox-item-14)" transform="translate(-0.0 -0.0)">
                
<g>
	<g>
		<path style="fill:#FFFFFF;" d="M35.381,1.067L5.355,1C3.028,0.995,1.138,2.877,1.133,5.204L1,64.873    C0.995,67.2,2.877,69.09,5.203,69.095l42.13,0.094c2.327,0.005,4.217-1.877,4.222-4.204l0.106-47.565L35.381,1.067z"/>
		<path style="fill:#1A1A1A;" d="M47.343,70.189c-0.004,0-0.008,0-0.013,0L5.201,70.095c-1.393-0.003-2.7-0.548-3.683-1.535    S-0.003,66.263,0,64.871L0.133,5.201c0.003-1.392,0.548-2.7,1.535-3.683C2.652,0.539,3.957,0,5.345,0c0.004,0,0.008,0,0.013,0    l30.026,0.067c0.265,0,0.519,0.106,0.706,0.294L52.37,16.715c0.188,0.188,0.292,0.442,0.292,0.708l-0.106,47.565    c-0.003,1.392-0.548,2.7-1.535,3.683C50.036,69.65,48.731,70.189,47.343,70.189z M5.345,2C4.49,2,3.686,2.332,3.079,2.936    c-0.608,0.605-0.944,1.412-0.946,2.27L2,64.876c-0.002,0.858,0.331,1.666,0.936,2.273c0.605,0.608,1.412,0.944,2.271,0.946    l42.129,0.094c0.002,0,0.005,0,0.007,0c0.855,0,1.66-0.332,2.267-0.936c0.608-0.605,0.944-1.412,0.946-2.27l0.105-47.15    L34.964,2.066L5.353,2C5.35,2,5.348,2,5.345,2z"/>
	</g>
	<g>
		<path style="fill:#1A1A1A;" d="M41.879,28.95c0,0-0.001,0-0.002,0L11.44,28.882c-0.552-0.001-0.999-0.45-0.998-1.002    c0.001-0.551,0.449-0.998,1-0.998c0,0,0.001,0,0.002,0l30.437,0.068c0.552,0.001,0.999,0.45,0.998,1.002    C42.878,28.503,42.431,28.95,41.879,28.95z"/>
	</g>
	<g>
		<path style="fill:#1A1A1A;" d="M41.86,37.72c0,0-0.001,0-0.002,0l-30.437-0.068c-0.552-0.001-0.999-0.45-0.998-1.002    c0.001-0.551,0.449-0.998,1-0.998c0,0,0.001,0,0.002,0l30.437,0.068c0.552,0.001,0.999,0.45,0.998,1.002    C42.858,37.273,42.411,37.72,41.86,37.72z"/>
	</g>
	<g>
		<path style="fill:#1A1A1A;" d="M41.84,46.49c0,0-0.001,0-0.002,0l-30.437-0.068c-0.552-0.001-0.999-0.45-0.998-1.002    c0.001-0.551,0.449-0.998,1-0.998c0,0,0.001,0,0.002,0l30.437,0.068c0.552,0.001,0.999,0.45,0.998,1.002    C42.839,46.043,42.392,46.49,41.84,46.49z"/>
	</g>
	<g>
		<path style="fill:#1A1A1A;" d="M32.707,55.239c0,0-0.001,0-0.002,0l-21.323-0.048c-0.552-0.001-0.999-0.45-0.998-1.002    c0.001-0.551,0.449-0.998,1-0.998c0,0,0.001,0,0.002,0l21.323,0.048c0.552,0.001,0.999,0.45,0.998,1.002    C33.706,54.793,33.258,55.239,32.707,55.239z"/>
	</g>
	<g>
		<path style="fill:#FFFFFF;" d="M35.362,1.048L35.335,13.19c-0.005,2.327,1.877,4.217,4.204,4.222l12.142,0.027L35.362,1.048z"/>
		<path style="fill:#1A1A1A;" d="M51.68,18.439c-0.001,0-0.001,0-0.002,0l-12.142-0.027c-1.392-0.003-2.7-0.548-3.683-1.535    s-1.522-2.297-1.519-3.69l0.027-12.142c0.001-0.404,0.245-0.769,0.619-0.922c0.375-0.154,0.804-0.067,1.089,0.219l16.318,16.392    c0.286,0.287,0.37,0.717,0.214,1.09C52.448,18.197,52.084,18.439,51.68,18.439z M36.356,3.464l-0.021,9.728    c-0.002,0.858,0.331,1.666,0.936,2.274c0.605,0.608,1.411,0.944,2.27,0.946l9.728,0.022L36.356,3.464z"/>
	</g>
</g>

            </g>
        </g>
    </g>
    
    <!-- ITEM 15 -->
    <g>
        <defs>
            <clipPath id="clip-path-id-viewbox-item-15">
                <rect x="0.0" y="0.0" width="38.836" height="27.925"/>
            </clipPath>
        </defs>
        <g transform="translate(1200.0 88.0) rotate(350.3277626914406 43.5 31.0) scale(2.2401895148830984 2.2202327663384063)">
            <g clip-path="url(#clip-path-id-viewbox-item-15)" transform="translate(-0.0 -0.0)">
                
<g>
	<g>
		<path style="fill:#1A1A1A;" d="M37.835,27.925c-0.001,0-0.003,0-0.004,0l-36.836-0.14c-0.265-0.001-0.52-0.107-0.706-0.295    C0.103,27.301-0.001,27.047,0,26.781L0.098,0.996C0.1,0.446,0.547,0,1.098,0c0.001,0,0.003,0,0.004,0    C1.654,0.002,2.1,0.452,2.098,1.004L2.003,25.789l35.836,0.136c0.552,0.002,0.998,0.452,0.996,1.004    C38.834,27.48,38.386,27.925,37.835,27.925z"/>
	</g>
	<g>
		
			<rect x="7.385" y="10.884" transform="matrix(1 0.0038 -0.0038 1 0.0714 -0.0435)" style="fill:#FFFFFF;" width="8.192" height="15.725"/>
		<path style="fill:#1A1A1A;" d="M15.548,27.625c-0.001,0-0.003,0-0.004,0l-8.192-0.031C6.8,27.592,6.354,27.142,6.356,26.59    l0.06-15.725c0.002-0.551,0.449-0.996,1-0.996c0.001,0,0.003,0,0.004,0L15.612,9.9c0.265,0.001,0.519,0.107,0.706,0.295    c0.187,0.188,0.291,0.443,0.29,0.708l-0.06,15.726c-0.001,0.265-0.107,0.519-0.296,0.706    C16.065,27.521,15.812,27.625,15.548,27.625z M8.36,25.598l6.192,0.023l0.052-13.726l-6.192-0.023L8.36,25.598z"/>
	</g>
	<g>
		
			<rect x="15.891" y="5.747" transform="matrix(1 0.0038 -0.0038 1 0.0617 -0.0759)" style="fill:#FFFFFF;" width="8.192" height="20.895"/>
		<path style="fill:#1A1A1A;" d="M24.043,27.657c-0.001,0-0.003,0-0.004,0l-8.192-0.031c-0.265-0.001-0.52-0.107-0.706-0.295    c-0.187-0.188-0.291-0.443-0.29-0.708l0.08-20.895c0.002-0.551,0.449-0.996,1-0.996c0.001,0,0.002,0,0.004,0l8.192,0.031    c0.265,0.001,0.519,0.107,0.706,0.295c0.187,0.188,0.291,0.443,0.29,0.708l-0.08,20.896    C25.042,27.212,24.594,27.657,24.043,27.657z M16.855,25.63l6.192,0.023L23.12,6.758l-6.192-0.023L16.855,25.63z"/>
	</g>
	<g>
		
			<rect x="24.064" y="16.118" transform="matrix(1 0.0038 -0.0038 1 0.0816 -0.107)" style="fill:#FFFFFF;" width="8.192" height="10.555"/>
		<path style="fill:#1A1A1A;" d="M32.236,27.689c-0.001,0-0.003,0-0.004,0l-8.192-0.031c-0.552-0.002-0.998-0.452-0.996-1.004    l0.04-10.555c0.002-0.551,0.449-0.996,1-0.996c0.001,0,0.003,0,0.004,0l8.192,0.031c0.265,0.001,0.519,0.107,0.706,0.295    c0.187,0.188,0.291,0.443,0.29,0.708l-0.04,10.556c-0.001,0.265-0.107,0.519-0.296,0.706C32.752,27.584,32.5,27.689,32.236,27.689    z M25.047,25.661l6.192,0.023l0.032-8.556l-6.192-0.023L25.047,25.661z"/>
	</g>
</g>

            </g>
        </g>
    </g>
    
</svg>